VIC WA NT Print-ExtraBold.ufo
<glyph name="exclam" format="2">
	<advance width="292"/>
	<unicode hex="0021"/>
	<outline>
		<contour>
			<point x="120" y="175" type="curve" smooth="yes"/>
			<point x="143" y="173"/>
			<point x="172" y="191"/>
			<point x="177" y="220" type="curve" smooth="yes"/>
			<point x="246" y="605" type="line" smooth="yes"/>
			<point x="251" y="632"/>
			<point x="224" y="650"/>
			<point x="200" y="650" type="curve" smooth="yes"/>
			<point x="178" y="650"/>
			<point x="149" y="635"/>
			<point x="145" y="611" type="curve" smooth="yes"/>
			<point x="76" y="226" type="line" smooth="yes"/>
			<point x="71" y="197"/>
			<point x="95" y="177"/>
		</contour>
		<contour>
			<point x="93" y="-24" type="curve" smooth="yes"/>
			<point x="127" y="-24"/>
			<point x="160" y="6"/>
			<point x="160" y="40" type="curve" smooth="yes"/>
			<point x="160" y="74"/>
			<point x="127" y="104"/>
			<point x="93" y="104" type="curve" smooth="yes"/>
			<point x="56" y="104"/>
			<point x="32" y="71"/>
			<point x="32" y="40" type="curve" smooth="yes"/>
			<point x="32" y="9"/>
			<point x="56" y="-24"/>
		</contour>
	</outline>
</glyph>
<glyph name="quotedbl" format="2">
	<advance width="414"/>
	<unicode hex="0022"/>
	<outline>
		<contour>
			<point x="316" y="456" type="curve" smooth="yes"/>
			<point x="338" y="456"/>
			<point x="365" y="470"/>
			<point x="369" y="496" type="curve" smooth="yes"/>
			<point x="386" y="595" type="line" smooth="yes"/>
			<point x="392" y="629"/>
			<point x="366" y="650"/>
			<point x="338" y="650" type="curve" smooth="yes"/>
			<point x="315" y="650"/>
			<point x="291" y="635"/>
			<point x="286" y="610" type="curve" smooth="yes"/>
			<point x="268" y="510" type="line" smooth="yes"/>
			<point x="261" y="472"/>
			<point x="292" y="456"/>
		</contour>
		<contour>
			<point x="157" y="456" type="curve" smooth="yes"/>
			<point x="180" y="456"/>
			<point x="205" y="471"/>
			<point x="210" y="498" type="curve" smooth="yes"/>
			<point x="227" y="594" type="line" smooth="yes"/>
			<point x="233" y="628"/>
			<point x="209" y="650"/>
			<point x="181" y="650" type="curve" smooth="yes"/>
			<point x="158" y="650"/>
			<point x="132" y="634"/>
			<point x="127" y="606" type="curve" smooth="yes"/>
			<point x="110" y="510" type="line" smooth="yes"/>
			<point x="104" y="477"/>
			<point x="129" y="456"/>
		</contour>
	</outline>
</glyph>
<glyph name="numbersign" format="2">
	<advance width="756"/>
	<unicode hex="0023"/>
	<outline>
		<contour>
			<point x="453" y="0" type="curve" smooth="yes"/>
			<point x="477" y="0"/>
			<point x="499" y="11"/>
			<point x="504" y="39" type="curve" smooth="yes"/>
			<point x="589" y="523" type="line" smooth="yes"/>
			<point x="595" y="555"/>
			<point x="571" y="568"/>
			<point x="548" y="568" type="curve" smooth="yes"/>
			<point x="524" y="568"/>
			<point x="496" y="558"/>
			<point x="491" y="531" type="curve" smooth="yes"/>
			<point x="406" y="47" type="line" smooth="yes"/>
			<point x="400" y="13"/>
			<point x="426" y="0"/>
		</contour>
		<contour>
			<point x="102" y="133" type="curve" smooth="yes"/>
			<point x="614" y="133" type="line" smooth="yes"/>
			<point x="643" y="133"/>
			<point x="663" y="153"/>
			<point x="663" y="177" type="curve" smooth="yes"/>
			<point x="663" y="200"/>
			<point x="644" y="218"/>
			<point x="614" y="218" type="curve" smooth="yes"/>
			<point x="102" y="218" type="line" smooth="yes"/>
			<point x="72" y="218"/>
			<point x="52" y="200"/>
			<point x="52" y="177" type="curve" smooth="yes"/>
			<point x="52" y="153"/>
			<point x="73" y="133"/>
		</contour>
		<contour>
			<point x="205" y="0" type="curve" smooth="yes"/>
			<point x="229" y="0"/>
			<point x="258" y="10"/>
			<point x="263" y="39" type="curve" smooth="yes"/>
			<point x="348" y="523" type="line" smooth="yes"/>
			<point x="353" y="552"/>
			<point x="329" y="568"/>
			<point x="302" y="568" type="curve" smooth="yes"/>
			<point x="277" y="568"/>
			<point x="256" y="557"/>
			<point x="251" y="530" type="curve" smooth="yes"/>
			<point x="165" y="47" type="line" smooth="yes"/>
			<point x="159" y="16"/>
			<point x="179" y="0"/>
		</contour>
		<contour>
			<point x="141" y="357" type="curve" smooth="yes"/>
			<point x="652" y="357" type="line" smooth="yes"/>
			<point x="682" y="357"/>
			<point x="703" y="375"/>
			<point x="703" y="399" type="curve" smooth="yes"/>
			<point x="703" y="422"/>
			<point x="682" y="442"/>
			<point x="652" y="442" type="curve" smooth="yes"/>
			<point x="141" y="442" type="line" smooth="yes"/>
			<point x="111" y="442"/>
			<point x="91" y="422"/>
			<point x="91" y="399" type="curve" smooth="yes"/>
			<point x="91" y="375"/>
			<point x="111" y="357"/>
		</contour>
	</outline>
</glyph>
<glyph name="dollar" format="2">
	<advance width="474"/>
	<unicode hex="0024"/>
	<outline>
		<contour>
			<point x="175" y="-3" type="curve" smooth="yes"/>
			<point x="274" y="-3"/>
			<point x="386" y="33"/>
			<point x="407" y="145" type="curve" smooth="yes"/>
			<point x="429" y="262"/>
			<point x="355" y="303"/>
			<point x="290" y="343" type="curve" smooth="yes"/>
			<point x="232" y="379"/>
			<point x="162" y="400"/>
			<point x="170" y="441" type="curve" smooth="yes"/>
			<point x="176" y="474"/>
			<point x="218" y="479"/>
			<point x="279" y="479" type="curve" smooth="yes"/>
			<point x="337" y="479"/>
			<point x="361" y="467"/>
			<point x="368" y="444" type="curve" smooth="yes"/>
			<point x="377" y="415"/>
			<point x="402" y="404"/>
			<point x="432" y="413" type="curve" smooth="yes"/>
			<point x="457" y="421"/>
			<point x="468" y="442"/>
			<point x="463" y="466" type="curve" smooth="yes"/>
			<point x="448" y="538"/>
			<point x="400" y="568"/>
			<point x="301" y="568" type="curve" smooth="yes"/>
			<point x="163" y="568"/>
			<point x="82" y="532"/>
			<point x="67" y="444" type="curve" smooth="yes"/>
			<point x="50" y="348"/>
			<point x="157" y="303"/>
			<point x="220" y="266" type="curve" smooth="yes"/>
			<point x="288" y="226"/>
			<point x="323" y="204"/>
			<point x="312" y="149" type="curve" smooth="yes"/>
			<point x="303" y="104"/>
			<point x="252" y="93"/>
			<point x="181" y="93" type="curve" smooth="yes"/>
			<point x="119" y="93"/>
			<point x="102" y="102"/>
			<point x="95" y="123" type="curve" smooth="yes"/>
			<point x="84" y="153"/>
			<point x="51" y="162"/>
			<point x="26" y="154" type="curve" smooth="yes"/>
			<point x="3" y="147"/>
			<point x="-15" y="125"/>
			<point x="-10" y="101" type="curve" smooth="yes"/>
			<point x="2" y="33"/>
			<point x="63" y="-3"/>
		</contour>
		<contour>
			<point x="349" y="594" type="line" smooth="yes"/>
			<point x="355" y="629"/>
			<point x="332" y="650"/>
			<point x="306" y="650" type="curve" smooth="yes"/>
			<point x="284" y="650"/>
			<point x="259" y="635"/>
			<point x="254" y="606" type="curve" smooth="yes"/>
			<point x="143" y="-28" type="line" smooth="yes"/>
			<point x="137" y="-61"/>
			<point x="160" y="-80"/>
			<point x="185" y="-80" type="curve" smooth="yes"/>
			<point x="207" y="-80"/>
			<point x="232" y="-65"/>
			<point x="237" y="-38" type="curve" smooth="yes"/>
		</contour>
	</outline>
</glyph>
<glyph name="percent" format="2">
	<advance width="613"/>
	<unicode hex="0025"/>
	<outline>
		<contour>
			<point x="473" y="588" type="line" smooth="yes"/>
			<point x="489" y="624"/>
			<point x="458" y="650"/>
			<point x="428" y="650" type="curve" smooth="yes"/>
			<point x="408" y="650"/>
			<point x="386" y="639"/>
			<point x="375" y="614" type="curve" smooth="yes"/>
			<point x="135" y="60" type="line" smooth="yes"/>
			<point x="120" y="25"/>
			<point x="149" y="0"/>
			<point x="181" y="0" type="curve" smooth="yes"/>
			<point x="200" y="0"/>
			<point x="222" y="10"/>
			<point x="232" y="32" type="curve" smooth="yes"/>
		</contour>
		<contour>
			<point x="396" y="-4" type="curve" smooth="yes"/>
			<point x="475" y="-4"/>
			<point x="546" y="106"/>
			<point x="546" y="175" type="curve" smooth="yes"/>
			<point x="546" y="223"/>
			<point x="514" y="252"/>
			<point x="458" y="252" type="curve" smooth="yes"/>
			<point x="409" y="252"/>
			<point x="377" y="219"/>
			<point x="361" y="191" type="curve" smooth="yes"/>
			<point x="349" y="171"/>
			<point x="332" y="126"/>
			<point x="332" y="76" type="curve" smooth="yes"/>
			<point x="332" y="8"/>
			<point x="368" y="-4"/>
		</contour>
		<contour>
			<point x="413" y="74" type="curve" smooth="yes"/>
			<point x="409" y="74"/>
			<point x="407" y="90"/>
			<point x="408" y="102" type="curve" smooth="yes"/>
			<point x="411" y="122"/>
			<point x="417" y="141"/>
			<point x="427" y="160" type="curve" smooth="yes"/>
			<point x="435" y="175"/>
			<point x="445" y="178"/>
			<point x="455" y="178" type="curve" smooth="yes"/>
			<point x="466" y="178"/>
			<point x="466" y="169"/>
			<point x="465" y="153" type="curve" smooth="yes"/>
			<point x="463" y="121"/>
			<point x="431" y="74"/>
		</contour>
		<contour>
			<point x="137" y="398" type="curve" smooth="yes"/>
			<point x="216" y="398"/>
			<point x="287" y="508"/>
			<point x="287" y="577" type="curve" smooth="yes"/>
			<point x="287" y="625"/>
			<point x="255" y="654"/>
			<point x="199" y="654" type="curve" smooth="yes"/>
			<point x="150" y="654"/>
			<point x="118" y="621"/>
			<point x="102" y="593" type="curve" smooth="yes"/>
			<point x="90" y="573"/>
			<point x="73" y="528"/>
			<point x="73" y="478" type="curve" smooth="yes"/>
			<point x="73" y="410"/>
			<point x="109" y="398"/>
		</contour>
		<contour>
			<point x="154" y="476" type="curve" smooth="yes"/>
			<point x="150" y="476"/>
			<point x="148" y="492"/>
			<point x="149" y="504" type="curve" smooth="yes"/>
			<point x="152" y="524"/>
			<point x="158" y="543"/>
			<point x="168" y="562" type="curve" smooth="yes"/>
			<point x="176" y="577"/>
			<point x="186" y="580"/>
			<point x="196" y="580" type="curve" smooth="yes"/>
			<point x="207" y="580"/>
			<point x="207" y="571"/>
			<point x="206" y="555" type="curve" smooth="yes"/>
			<point x="204" y="523"/>
			<point x="172" y="476"/>
		</contour>
	</outline>
</glyph>
<glyph name="ampersand" format="2">
	<advance width="644"/>
	<unicode hex="0026"/>
	<outline>
		<contour>
			<point x="243" y="-4" type="curve" smooth="yes"/>
			<point x="356" y="-4"/>
			<point x="425" y="70"/>
			<point x="505" y="191" type="curve" smooth="yes"/>
			<point x="522" y="217"/>
			<point x="514" y="244"/>
			<point x="492" y="257" type="curve" smooth="yes"/>
			<point x="468" y="272"/>
			<point x="430" y="263"/>
			<point x="412" y="238" type="curve" smooth="yes"/>
			<point x="357" y="160"/>
			<point x="320" y="97"/>
			<point x="261" y="97" type="curve" smooth="yes"/>
			<point x="218" y="97"/>
			<point x="182" y="119"/>
			<point x="182" y="172" type="curve" smooth="yes"/>
			<point x="182" y="218"/>
			<point x="215" y="262"/>
			<point x="276" y="301" type="curve" smooth="yes"/>
			<point x="312" y="324" type="line"/>
			<point x="414" y="393"/>
			<point x="508" y="469"/>
			<point x="488" y="560" type="curve" smooth="yes"/>
			<point x="475" y="622"/>
			<point x="417" y="650"/>
			<point x="351" y="650" type="curve" smooth="yes"/>
			<point x="243" y="650"/>
			<point x="157" y="577"/>
			<point x="152" y="502" type="curve" smooth="yes"/>
			<point x="147" y="441"/>
			<point x="196" y="383"/>
			<point x="229" y="329" type="curve"/>
			<point x="413" y="24" type="line"/>
			<point x="427" y="1"/>
			<point x="469" y="-14"/>
			<point x="496" y="7" type="curve" smooth="yes"/>
			<point x="525" y="30"/>
			<point x="523" y="59"/>
			<point x="508" y="83" type="curve" smooth="yes"/>
			<point x="317" y="393" type="line" smooth="yes"/>
			<point x="285" y="445"/>
			<point x="259" y="479"/>
			<point x="261" y="504" type="curve" smooth="yes"/>
			<point x="262" y="526"/>
			<point x="293" y="547"/>
			<point x="344" y="547" type="curve" smooth="yes"/>
			<point x="374" y="547"/>
			<point x="382" y="541"/>
			<point x="384" y="532" type="curve" smooth="yes"/>
			<point x="388" y="504"/>
			<point x="346" y="468"/>
			<point x="259" y="413" type="curve" smooth="yes"/>
			<point x="227" y="393" type="line" smooth="yes"/>
			<point x="147" y="343"/>
			<point x="73" y="254"/>
			<point x="73" y="170" type="curve" smooth="yes"/>
			<point x="73" y="86"/>
			<point x="121" y="-4"/>
		</contour>
	</outline>
</glyph>
<glyph name="parenright" format="2">
	<advance width="452"/>
	<unicode hex="0029"/>
	<outline>
		<contour>
			<point x="-21" y="-267" type="curve" smooth="yes"/>
			<point x="-5" y="-289"/>
			<point x="32" y="-291"/>
			<point x="53" y="-270" type="curve" smooth="yes"/>
			<point x="199" y="-132"/>
			<point x="288" y="41"/>
			<point x="311" y="164" type="curve" smooth="yes"/>
			<point x="329" y="274"/>
			<point x="301" y="469"/>
			<point x="221" y="631" type="curve" smooth="yes"/>
			<point x="200" y="669"/>
			<point x="171" y="679"/>
			<point x="149" y="669" type="curve" smooth="yes"/>
			<point x="131" y="660"/>
			<point x="119" y="640"/>
			<point x="136" y="601" type="curve" smooth="yes"/>
			<point x="207" y="448"/>
			<point x="231" y="309"/>
			<point x="210" y="190" type="curve" smooth="yes"/>
			<point x="187" y="56"/>
			<point x="126" y="-76"/>
			<point x="-6" y="-207" type="curve" smooth="yes"/>
			<point x="-26" y="-225"/>
			<point x="-36" y="-249"/>
		</contour>
	</outline>
</glyph>
<glyph name="asterisk" format="2">
	<advance width="430"/>
	<unicode hex="002A"/>
	<outline>
		<contour>
			<point x="340" y="554" type="line" smooth="yes"/>
			<point x="366" y="570"/>
			<point x="376" y="594"/>
			<point x="361" y="617" type="curve" smooth="yes"/>
			<point x="350" y="633"/>
			<point x="322" y="639"/>
			<point x="297" y="625" type="curve" smooth="yes"/>
			<point x="164" y="543" type="line"/>
			<point x="142" y="527"/>
			<point x="130" y="504"/>
			<point x="143" y="483" type="curve" smooth="yes"/>
			<point x="153" y="464"/>
			<point x="184" y="458"/>
			<point x="211" y="474" type="curve" smooth="yes"/>
		</contour>
		<contour>
			<point x="276" y="477" type="line"/>
			<point x="301" y="460"/>
			<point x="330" y="464"/>
			<point x="344" y="481" type="curve" smooth="yes"/>
			<point x="357" y="499"/>
			<point x="355" y="521"/>
			<point x="333" y="538" type="curve" smooth="yes"/>
			<point x="228" y="621" type="line" smooth="yes"/>
			<point x="206" y="638"/>
			<point x="177" y="634"/>
			<point x="164" y="617" type="curve" smooth="yes"/>
			<point x="149" y="599"/>
			<point x="151" y="576"/>
			<point x="175" y="558" type="curve" smooth="yes"/>
		</contour>
		<contour>
			<point x="309" y="616" type="line" smooth="yes"/>
			<point x="314" y="648"/>
			<point x="294" y="668"/>
			<point x="270" y="668" type="curve" smooth="yes"/>
			<point x="249" y="668"/>
			<point x="226" y="651"/>
			<point x="221" y="624" type="curve" smooth="yes"/>
			<point x="196" y="482" type="line" smooth="yes"/>
			<point x="191" y="453"/>
			<point x="207" y="436"/>
			<point x="228" y="431" type="curve" smooth="yes"/>
			<point x="250" y="426"/>
			<point x="278" y="443"/>
			<point x="284" y="474" type="curve" smooth="yes"/>
		</contour>
	</outline>
</glyph>
<glyph name="hyphen" format="2">
	<advance width="470"/>
	<unicode hex="002D"/>
	<outline>
		<contour>
			<point x="134" y="153" type="curve" smooth="yes"/>
			<point x="282" y="153" type="line" smooth="yes"/>
			<point x="313" y="153"/>
			<point x="334" y="173"/>
			<point x="334" y="198" type="curve" smooth="yes"/>
			<point x="334" y="222"/>
			<point x="313" y="242"/>
			<point x="282" y="242" type="curve" smooth="yes"/>
			<point x="134" y="242" type="line" smooth="yes"/>
			<point x="101" y="242"/>
			<point x="80" y="220"/>
			<point x="82" y="194" type="curve" smooth="yes"/>
			<point x="84" y="171"/>
			<point x="105" y="153"/>
		</contour>
	</outline>
</glyph>
<glyph name="period" format="2">
	<advance width="328"/>
	<unicode hex="002E"/>
	<outline>
		<contour>
			<point x="98" y="-11" type="curve" smooth="yes"/>
			<point x="132" y="-11"/>
			<point x="162" y="19"/>
			<point x="162" y="54" type="curve" smooth="yes"/>
			<point x="162" y="88"/>
			<point x="132" y="117"/>
			<point x="98" y="117" type="curve" smooth="yes"/>
			<point x="62" y="117"/>
			<point x="34" y="88"/>
			<point x="34" y="54" type="curve" smooth="yes"/>
			<point x="34" y="20"/>
			<point x="62" y="-11"/>
		</contour>
	</outline>
</glyph>
<glyph name="slash" format="2">
	<advance width="447"/>
	<unicode hex="002F"/>
	<outline>
		<contour>
			<point x="122" y="0" type="curve" smooth="yes"/>
			<point x="141" y="0"/>
			<point x="163" y="10"/>
			<point x="173" y="32" type="curve" smooth="yes"/>
			<point x="414" y="588" type="line" smooth="yes"/>
			<point x="430" y="624"/>
			<point x="399" y="650"/>
			<point x="369" y="650" type="curve" smooth="yes"/>
			<point x="349" y="650"/>
			<point x="327" y="639"/>
			<point x="316" y="614" type="curve" smooth="yes"/>
			<point x="76" y="60" type="line" smooth="yes"/>
			<point x="61" y="25"/>
			<point x="90" y="0"/>
		</contour>
	</outline>
</glyph>
<glyph name="two" format="2">
	<advance width="430"/>
	<unicode hex="0032"/>
	<outline>
		<contour>
			<point x="75" y="0" type="line"/>
			<point x="117" y="49" type="line"/>
			<point x="172" y="112"/>
			<point x="292" y="251"/>
			<point x="303" y="264" type="curve" smooth="yes"/>
			<point x="428" y="417"/>
			<point x="442" y="491"/>
			<point x="351" y="547" type="curve" smooth="yes"/>
			<point x="276" y="593"/>
			<point x="148" y="558"/>
			<point x="84" y="504" type="curve" smooth="yes"/>
			<point x="50" y="476"/>
			<point x="56" y="454"/>
			<point x="73" y="434" type="curve" smooth="yes"/>
			<point x="85" y="421"/>
			<point x="115" y="413"/>
			<point x="153" y="443" type="curve" smooth="yes"/>
			<point x="198" y="479"/>
			<point x="271" y="493"/>
			<point x="303" y="473" type="curve" smooth="yes"/>
			<point x="330" y="457"/>
			<point x="293" y="398"/>
			<point x="246" y="343" type="curve" smooth="yes"/>
			<point x="220" y="313"/>
			<point x="123" y="205"/>
			<point x="-2" y="65" type="curve" smooth="yes"/>
			<point x="-33" y="29"/>
			<point x="-8" y="0"/>
			<point x="32" y="0" type="curve" smooth="yes"/>
		</contour>
		<contour>
			<point x="31" y="0" type="line"/>
			<point x="287" y="0" type="line" smooth="yes"/>
			<point x="317" y="0"/>
			<point x="337" y="14"/>
			<point x="337" y="41" type="curve" smooth="yes"/>
			<point x="337" y="65"/>
			<point x="319" y="86"/>
			<point x="287" y="86" type="curve" smooth="yes"/>
			<point x="111" y="86" type="line"/>
		</contour>
	</outline>
</glyph>
<glyph name="three" format="2">
	<advance width="436"/>
	<unicode hex="0033"/>
	<outline>
		<contour>
			<point x="109" y="-4" type="curve" smooth="yes"/>
			<point x="229" y="-4"/>
			<point x="364" y="96"/>
			<point x="387" y="229" type="curve" smooth="yes"/>
			<point x="402" y="313"/>
			<point x="344" y="379"/>
			<point x="252" y="379" type="curve" smooth="yes"/>
			<point x="209" y="379"/>
			<point x="158" y="366"/>
			<point x="105" y="339" type="curve"/>
			<point x="137" y="250" type="line"/>
			<point x="194" y="279"/>
			<point x="213" y="282"/>
			<point x="241" y="282" type="curve" smooth="yes"/>
			<point x="280" y="282"/>
			<point x="296" y="262"/>
			<point x="290" y="228" type="curve" smooth="yes"/>
			<point x="275" y="145"/>
			<point x="185" y="86"/>
			<point x="110" y="86" type="curve" smooth="yes"/>
			<point x="92" y="86"/>
			<point x="79" y="90"/>
			<point x="66" y="100" type="curve" smooth="yes"/>
			<point x="35" y="124"/>
			<point x="0" y="113"/>
			<point x="-11" y="93" type="curve" smooth="yes"/>
			<point x="-22" y="76"/>
			<point x="-24" y="54"/>
			<point x="9" y="28" type="curve" smooth="yes"/>
			<point x="35" y="7"/>
			<point x="72" y="-4"/>
		</contour>
		<contour>
			<point x="75" y="270" type="curve" smooth="yes"/>
			<point x="86" y="249"/>
			<point x="120" y="237"/>
			<point x="147" y="256" type="curve" smooth="yes"/>
			<point x="260" y="334"/>
			<point x="371" y="410"/>
			<point x="384" y="481" type="curve" smooth="yes"/>
			<point x="394" y="535"/>
			<point x="334" y="568"/>
			<point x="266" y="568" type="curve" smooth="yes"/>
			<point x="212" y="568"/>
			<point x="151" y="550"/>
			<point x="91" y="510" type="curve" smooth="yes"/>
			<point x="58" y="489"/>
			<point x="59" y="463"/>
			<point x="71" y="445" type="curve" smooth="yes"/>
			<point x="83" y="423"/>
			<point x="112" y="424"/>
			<point x="135" y="439" type="curve" smooth="yes"/>
			<point x="190" y="476"/>
			<point x="240" y="488"/>
			<point x="271" y="488" type="curve" smooth="yes"/>
			<point x="278" y="488"/>
			<point x="288" y="487"/>
			<point x="287" y="481" type="curve" smooth="yes"/>
			<point x="284" y="465"/>
			<point x="170" y="381"/>
			<point x="93" y="333" type="curve" smooth="yes"/>
			<point x="66" y="316"/>
			<point x="65" y="290"/>
		</contour>
	</outline>
</glyph>
<glyph name="four" format="2">
	<advance width="424"/>
	<unicode hex="0034"/>
	<guideline x="525" y="569" angle="0"/>
	<outline>
		<contour>
			<point x="72" y="122" type="curve" smooth="yes"/>
			<point x="98" y="122"/>
			<point x="110" y="140"/>
			<point x="124" y="164" type="curve" smooth="yes"/>
			<point x="334" y="520" type="line" smooth="yes"/>
			<point x="350" y="547"/>
			<point x="316" y="569"/>
			<point x="293" y="569" type="curve" smooth="yes"/>
			<point x="265" y="569"/>
			<point x="250" y="556"/>
			<point x="234" y="528" type="curve" smooth="yes"/>
			<point x="23" y="170" type="line" smooth="yes"/>
			<point x="8" y="145"/>
			<point x="40" y="122"/>
		</contour>
		<contour>
			<point x="225" y="0" type="curve" smooth="yes"/>
			<point x="253" y="0"/>
			<point x="269" y="16"/>
			<point x="274" y="44" type="curve" smooth="yes"/>
			<point x="309" y="235" type="line" smooth="yes"/>
			<point x="314" y="264"/>
			<point x="303" y="282"/>
			<point x="279" y="287" type="curve" smooth="yes"/>
			<point x="255" y="291"/>
			<point x="235" y="276"/>
			<point x="230" y="248" type="curve" smooth="yes"/>
			<point x="195" y="59" type="line" smooth="yes"/>
			<point x="189" y="26"/>
			<point x="199" y="0"/>
		</contour>
		<contour>
			<point x="71" y="122" type="line"/>
			<point x="365" y="122" type="line" smooth="yes"/>
			<point x="393" y="122"/>
			<point x="414" y="143"/>
			<point x="414" y="168" type="curve" smooth="yes"/>
			<point x="414" y="192"/>
			<point x="393" y="212"/>
			<point x="365" y="212" type="curve" smooth="yes"/>
			<point x="128" y="212" type="line"/>
		</contour>
	</outline>
</glyph>
<glyph name="five" format="2">
	<advance width="405"/>
	<unicode hex="0035"/>
	<outline>
		<contour>
			<point x="131" y="-3" type="curve" smooth="yes"/>
			<point x="271" y="-3"/>
			<point x="367" y="125"/>
			<point x="367" y="216" type="curve" smooth="yes"/>
			<point x="367" y="298"/>
			<point x="297" y="372"/>
			<point x="186" y="372" type="curve" smooth="yes"/>
			<point x="152" y="372"/>
			<point x="115" y="364"/>
			<point x="74" y="348" type="curve"/>
			<point x="106" y="265" type="line"/>
			<point x="158" y="281"/>
			<point x="162" y="281"/>
			<point x="189" y="281" type="curve" smooth="yes"/>
			<point x="249" y="281"/>
			<point x="267" y="248"/>
			<point x="267" y="215" type="curve" smooth="yes"/>
			<point x="267" y="164"/>
			<point x="210" y="83"/>
			<point x="132" y="83" type="curve" smooth="yes"/>
			<point x="114" y="83"/>
			<point x="99" y="86"/>
			<point x="89" y="93" type="curve" smooth="yes"/>
			<point x="77" y="101"/>
			<point x="68" y="110"/>
			<point x="55" y="110" type="curve" smooth="yes"/>
			<point x="30" y="110"/>
			<point x="7" y="97"/>
			<point x="7" y="72" type="curve" smooth="yes"/>
			<point x="7" y="58"/>
			<point x="13" y="45"/>
			<point x="27" y="31" type="curve" smooth="yes"/>
			<point x="51" y="8"/>
			<point x="90" y="-3"/>
		</contour>
		<contour>
			<point x="96" y="264" type="curve" smooth="yes"/>
			<point x="118" y="264"/>
			<point x="146" y="281"/>
			<point x="150" y="304" type="curve" smooth="yes"/>
			<point x="189" y="529" type="line"/>
			<point x="161" y="571" type="line"/>
			<point x="139" y="571"/>
			<point x="118" y="571"/>
			<point x="107" y="562" type="curve" smooth="yes"/>
			<point x="97" y="554"/>
			<point x="91" y="543"/>
			<point x="88" y="528" type="curve" smooth="yes"/>
			<point x="49" y="312" type="line" smooth="yes"/>
			<point x="43" y="281"/>
			<point x="72" y="264"/>
		</contour>
		<contour>
			<point x="144" y="487" type="line"/>
			<point x="375" y="487" type="line" smooth="yes"/>
			<point x="407" y="487"/>
			<point x="424" y="505"/>
			<point x="424" y="529" type="curve" smooth="yes"/>
			<point x="424" y="556"/>
			<point x="405" y="571"/>
			<point x="375" y="571" type="curve" smooth="yes"/>
			<point x="159" y="571" type="line"/>
		</contour>
	</outline>
</glyph>
<glyph name="six" format="2">
	<advance width="381"/>
	<unicode hex="0036"/>
	<outline>
		<contour>
			<point x="101" y="114" type="line"/>
			<point x="87" y="195"/>
			<point x="136" y="274"/>
			<point x="204" y="371" type="curve" smooth="yes"/>
			<point x="230" y="407"/>
			<point x="271" y="447"/>
			<point x="338" y="494" type="curve" smooth="yes"/>
			<point x="355" y="506"/>
			<point x="363" y="521"/>
			<point x="363" y="537" type="curve" smooth="yes"/>
			<point x="362" y="559"/>
			<point x="342" y="576"/>
			<point x="317" y="576" type="curve" smooth="yes"/>
			<point x="307" y="576"/>
			<point x="296" y="573"/>
			<point x="285" y="568" type="curve"/>
			<point x="237" y="540"/>
			<point x="156" y="467"/>
			<point x="123" y="421" type="curve" smooth="yes"/>
			<point x="51" y="319"/>
			<point x="20" y="279"/>
			<point x="6" y="118" type="curve"/>
		</contour>
		<contour>
			<point x="134" y="-1" type="curve" smooth="yes"/>
			<point x="241" y="-1"/>
			<point x="343" y="143"/>
			<point x="343" y="247" type="curve" smooth="yes"/>
			<point x="343" y="316"/>
			<point x="298" y="354"/>
			<point x="222" y="354" type="curve" smooth="yes"/>
			<point x="131" y="354"/>
			<point x="54" y="308"/>
			<point x="37" y="243" type="curve" smooth="yes"/>
			<point x="7" y="126" type="line" smooth="yes"/>
			<point x="-4" y="82"/>
			<point x="53" y="-1"/>
		</contour>
		<contour>
			<point x="132" y="87" type="curve" smooth="yes"/>
			<point x="114" y="87"/>
			<point x="101" y="99"/>
			<point x="101" y="140" type="curve" smooth="yes"/>
			<point x="101" y="204"/>
			<point x="143" y="266"/>
			<point x="220" y="266" type="curve" smooth="yes"/>
			<point x="243" y="266"/>
			<point x="249" y="260"/>
			<point x="249" y="242" type="curve" smooth="yes"/>
			<point x="249" y="180"/>
			<point x="180" y="87"/>
		</contour>
	</outline>
</glyph>
<glyph name="seven" format="2">
	<advance width="403"/>
	<unicode hex="0037"/>
	<outline>
		<contour>
			<point x="219" y="0" type="curve" smooth="yes"/>
			<point x="242" y="0"/>
			<point x="267" y="15"/>
			<point x="272" y="42" type="curve" smooth="yes"/>
			<point x="357" y="524" type="line" smooth="yes"/>
			<point x="362" y="551"/>
			<point x="353" y="568"/>
			<point x="310" y="568" type="curve" smooth="yes"/>
			<point x="288" y="568"/>
			<point x="265" y="558"/>
			<point x="261" y="537" type="curve" smooth="yes"/>
			<point x="175" y="50" type="line" smooth="yes"/>
			<point x="170" y="20"/>
			<point x="192" y="0"/>
		</contour>
		<contour>
			<point x="311" y="488" type="line"/>
			<point x="311" y="568" type="line"/>
			<point x="78" y="568" type="line" smooth="yes"/>
			<point x="48" y="568"/>
			<point x="28" y="551"/>
			<point x="28" y="527" type="curve" smooth="yes"/>
			<point x="28" y="503"/>
			<point x="48" y="488"/>
			<point x="78" y="488" type="curve" smooth="yes"/>
		</contour>
	</outline>
</glyph>
<glyph name="eight" format="2">
	<advance width="400"/>
	<unicode hex="0038"/>
	<outline>
		<contour>
			<point x="163" y="-4" type="curve" smooth="yes"/>
			<point x="278" y="-4"/>
			<point x="338" y="87"/>
			<point x="338" y="157" type="curve" smooth="yes"/>
			<point x="338" y="219"/>
			<point x="292" y="280"/>
			<point x="247" y="321" type="curve" smooth="yes"/>
			<point x="225" y="341" type="line"/>
			<point x="144" y="344" type="line"/>
			<point x="46" y="275"/>
			<point x="18" y="197"/>
			<point x="18" y="141" type="curve" smooth="yes"/>
			<point x="18" y="80"/>
			<point x="52" y="-4"/>
		</contour>
		<contour>
			<point x="185" y="249" type="line" smooth="yes"/>
			<point x="198" y="236"/>
			<point x="240" y="191"/>
			<point x="240" y="148" type="curve" smooth="yes"/>
			<point x="240" y="114"/>
			<point x="209" y="81"/>
			<point x="168" y="81" type="curve" smooth="yes"/>
			<point x="135" y="81"/>
			<point x="115" y="108"/>
			<point x="115" y="148" type="curve" smooth="yes"/>
			<point x="115" y="177"/>
			<point x="128" y="213"/>
			<point x="180" y="254" type="curve"/>
		</contour>
		<contour>
			<point x="223" y="287" type="line"/>
			<point x="305" y="343"/>
			<point x="394" y="405"/>
			<point x="394" y="472" type="curve" smooth="yes"/>
			<point x="394" y="539"/>
			<point x="306" y="569"/>
			<point x="244" y="569" type="curve" smooth="yes"/>
			<point x="167" y="569"/>
			<point x="68" y="526"/>
			<point x="68" y="428" type="curve" smooth="yes"/>
			<point x="68" y="355"/>
			<point x="126" y="312"/>
			<point x="147" y="292" type="curve"/>
			<point x="231" y="341" type="line"/>
			<point x="212" y="362"/>
			<point x="166" y="390"/>
			<point x="166" y="433" type="curve" smooth="yes"/>
			<point x="166" y="470"/>
			<point x="193" y="488"/>
			<point x="228" y="488" type="curve" smooth="yes"/>
			<point x="260" y="488"/>
			<point x="299" y="486"/>
			<point x="299" y="471" type="curve" smooth="yes"/>
			<point x="299" y="456"/>
			<point x="217" y="391"/>
			<point x="158" y="355" type="curve"/>
		</contour>
	</outline>
</glyph>
<glyph name="colon" format="2">
	<advance width="326"/>
	<unicode hex="003A"/>
	<outline>
		<contour>
			<point x="127" y="175" type="curve" smooth="yes"/>
			<point x="162" y="175"/>
			<point x="192" y="206"/>
			<point x="192" y="241" type="curve" smooth="yes"/>
			<point x="192" y="275"/>
			<point x="162" y="303"/>
			<point x="128" y="303" type="curve" smooth="yes"/>
			<point x="92" y="303"/>
			<point x="64" y="273"/>
			<point x="64" y="240" type="curve" smooth="yes"/>
			<point x="64" y="208"/>
			<point x="92" y="175"/>
		</contour>
		<contour>
			<point x="91" y="-30" type="curve" smooth="yes"/>
			<point x="126" y="-30"/>
			<point x="156" y="0"/>
			<point x="156" y="35" type="curve" smooth="yes"/>
			<point x="156" y="70"/>
			<point x="126" y="98"/>
			<point x="91" y="98" type="curve" smooth="yes"/>
			<point x="55" y="98"/>
			<point x="28" y="69"/>
			<point x="28" y="35" type="curve" smooth="yes"/>
			<point x="28" y="1"/>
			<point x="55" y="-30"/>
		</contour>
	</outline>
</glyph>
<glyph name="semicolon" format="2">
	<advance width="328"/>
	<unicode hex="003B"/>
	<outline>
		<contour>
			<point x="154" y="39" type="line" smooth="yes"/>
			<point x="160" y="71"/>
			<point x="138" y="91"/>
			<point x="111" y="94" type="curve" smooth="yes"/>
			<point x="86" y="97"/>
			<point x="59" y="83"/>
			<point x="54" y="54" type="curve" smooth="yes"/>
			<point x="37" y="-45" type="line" smooth="yes"/>
			<point x="31" y="-78"/>
			<point x="55" y="-100"/>
			<point x="82" y="-102" type="curve" smooth="yes"/>
			<point x="105" y="-104"/>
			<point x="131" y="-89"/>
			<point x="136" y="-60" type="curve" smooth="yes"/>
		</contour>
		<contour>
			<point x="136" y="174" type="curve" smooth="yes"/>
			<point x="169" y="174"/>
			<point x="200" y="207"/>
			<point x="200" y="239" type="curve" smooth="yes"/>
			<point x="200" y="275"/>
			<point x="169" y="302"/>
			<point x="136" y="302" type="curve" smooth="yes"/>
			<point x="100" y="302"/>
			<point x="73" y="273"/>
			<point x="73" y="239" type="curve" smooth="yes"/>
			<point x="73" y="208"/>
			<point x="100" y="174"/>
		</contour>
	</outline>
</glyph>
<glyph name="greater" format="2">
	<advance width="511"/>
	<unicode hex="003E"/>
	<outline>
		<contour>
			<point x="372" y="173" type="line"/>
			<point x="320" y="245" type="line"/>
			<point x="95" y="127" type="line" smooth="yes"/>
			<point x="65" y="112"/>
			<point x="57" y="92"/>
			<point x="63" y="70" type="curve" smooth="yes"/>
			<point x="70" y="46"/>
			<point x="100" y="30"/>
			<point x="131" y="45" type="curve" smooth="yes"/>
		</contour>
		<contour>
			<point x="296" y="164" type="line"/>
			<point x="320" y="147"/>
			<point x="351" y="154"/>
			<point x="365" y="176" type="curve" smooth="yes"/>
			<point x="378" y="198"/>
			<point x="375" y="218"/>
			<point x="350" y="235" type="curve" smooth="yes"/>
			<point x="179" y="344" type="line" smooth="yes"/>
			<point x="154" y="359"/>
			<point x="125" y="355"/>
			<point x="111" y="337" type="curve" smooth="yes"/>
			<point x="95" y="315"/>
			<point x="100" y="291"/>
			<point x="125" y="272" type="curve"/>
		</contour>
	</outline>
</glyph>
<glyph name="question" format="2">
	<advance width="484"/>
	<unicode hex="003F"/>
	<outline>
		<contour>
			<point x="176" y="267" type="line"/>
			<point x="351" y="256"/>
			<point x="426" y="353"/>
			<point x="452" y="492" type="curve" smooth="yes"/>
			<point x="467" y="577"/>
			<point x="393" y="654"/>
			<point x="296" y="654" type="curve" smooth="yes"/>
			<point x="179" y="654"/>
			<point x="112" y="586"/>
			<point x="95" y="493" type="curve" smooth="yes"/>
			<point x="88" y="458"/>
			<point x="103" y="439"/>
			<point x="124" y="434" type="curve" smooth="yes"/>
			<point x="149" y="427"/>
			<point x="184" y="443"/>
			<point x="189" y="476" type="curve" smooth="yes"/>
			<point x="197" y="524"/>
			<point x="222" y="565"/>
			<point x="284" y="565" type="curve" smooth="yes"/>
			<point x="335" y="565"/>
			<point x="365" y="545"/>
			<point x="357" y="504" type="curve" smooth="yes"/>
			<point x="350" y="459"/>
			<point x="329" y="345"/>
			<point x="197" y="356" type="curve"/>
		</contour>
		<contour>
			<point x="148" y="-24" type="curve" smooth="yes"/>
			<point x="181" y="-24"/>
			<point x="214" y="6"/>
			<point x="214" y="41" type="curve" smooth="yes"/>
			<point x="214" y="75"/>
			<point x="184" y="104"/>
			<point x="149" y="104" type="curve" smooth="yes"/>
			<point x="113" y="104"/>
			<point x="86" y="74"/>
			<point x="86" y="41" type="curve" smooth="yes"/>
			<point x="86" y="9"/>
			<point x="113" y="-24"/>
		</contour>
		<contour>
			<point x="174" y="176" type="curve" smooth="yes"/>
			<point x="200" y="171"/>
			<point x="224" y="193"/>
			<point x="230" y="225" type="curve" smooth="yes"/>
			<point x="246" y="313" type="line" smooth="yes"/>
			<point x="251" y="338"/>
			<point x="227" y="356"/>
			<point x="198" y="356" type="curve" smooth="yes"/>
			<point x="177" y="356"/>
			<point x="155" y="342"/>
			<point x="151" y="321" type="curve" smooth="yes"/>
			<point x="135" y="233" type="line" smooth="yes"/>
			<point x="130" y="207"/>
			<point x="145" y="182"/>
		</contour>
	</outline>
</glyph>
<glyph name="at" format="2">
	<advance width="701"/>
	<unicode hex="0040"/>
	<outline>
		<contour>
			<point x="480" y="0" type="curve" smooth="yes"/>
			<point x="401" y="0"/>
			<point x="392" y="83"/>
			<point x="406" y="162" type="curve" smooth="yes"/>
			<point x="439" y="350" type="line"/>
			<point x="487" y="350" type="line" smooth="yes"/>
			<point x="519" y="350"/>
			<point x="531" y="328"/>
			<point x="525" y="295" type="curve" smooth="yes"/>
			<point x="502" y="160" type="line" smooth="yes"/>
			<point x="493" y="108"/>
			<point x="491" y="93"/>
			<point x="501" y="93" type="curve" smooth="yes"/>
			<point x="528" y="93"/>
			<point x="573" y="208"/>
			<point x="580" y="249" type="curve" smooth="yes"/>
			<point x="597" y="348"/>
			<point x="569" y="385"/>
			<point x="441" y="385" type="curve" smooth="yes"/>
			<point x="298" y="385"/>
			<point x="160" y="339"/>
			<point x="126" y="139" type="curve" smooth="yes"/>
			<point x="109" y="40"/>
			<point x="203" y="-36"/>
			<point x="249" y="-36" type="curve" smooth="yes"/>
			<point x="306" y="-36"/>
			<point x="336" y="-37"/>
			<point x="372" y="-18" type="curve" smooth="yes"/>
			<point x="404" y="-1"/>
			<point x="428" y="-10"/>
			<point x="438" y="-25" type="curve" smooth="yes"/>
			<point x="454" y="-49"/>
			<point x="459" y="-77"/>
			<point x="406" y="-102" type="curve" smooth="yes"/>
			<point x="374" y="-117"/>
			<point x="332" y="-124"/>
			<point x="253" y="-124" type="curve" smooth="yes"/>
			<point x="108" y="-124"/>
			<point x="8" y="8"/>
			<point x="32" y="146" type="curve" smooth="yes"/>
			<point x="74" y="393"/>
			<point x="251" y="475"/>
			<point x="443" y="475" type="curve" smooth="yes"/>
			<point x="625" y="475"/>
			<point x="693" y="391"/>
			<point x="664" y="228" type="curve" smooth="yes"/>
			<point x="649" y="138"/>
			<point x="579" y="0"/>
		</contour>
		<contour>
			<point x="289" y="-4" type="curve" smooth="yes"/>
			<point x="222" y="-4"/>
			<point x="156" y="47"/>
			<point x="174" y="147" type="curve" smooth="yes"/>
			<point x="194" y="261"/>
			<point x="264" y="350"/>
			<point x="430" y="350" type="curve" smooth="yes"/>
			<point x="454" y="350" type="line"/>
			<point x="445" y="260" type="line"/>
			<point x="433" y="260" type="line" smooth="yes"/>
			<point x="299" y="260"/>
			<point x="283" y="193"/>
			<point x="275" y="147" type="curve" smooth="yes"/>
			<point x="267" y="101"/>
			<point x="282" y="86"/>
			<point x="310" y="86" type="curve" smooth="yes"/>
			<point x="339" y="86"/>
			<point x="392" y="189"/>
			<point x="451" y="320" type="curve"/>
			<point x="429" y="112" type="line"/>
			<point x="393" y="48"/>
			<point x="349" y="-4"/>
		</contour>
	</outline>
</glyph>
<glyph name="B" format="2">
  <advance width="557"/>
  <unicode hex="0042"/>
  <outline>
    <contour>
      <point x="61" y="0" type="curve" smooth="yes"/>
      <point x="354" y="0"/>
      <point x="456" y="26"/>
      <point x="473" y="151" type="curve" smooth="yes"/>
      <point x="492" y="292"/>
      <point x="341" y="358"/>
      <point x="122" y="358" type="curve"/>
      <point x="108" y="277" type="line"/>
      <point x="317" y="277"/>
      <point x="384" y="241"/>
      <point x="374" y="168" type="curve" smooth="yes"/>
      <point x="367" y="115"/>
      <point x="305" y="94"/>
      <point x="127" y="90" type="curve"/>
      <point x="210" y="559" type="line"/>
      <point x="390" y="554"/>
      <point x="428" y="523"/>
      <point x="421" y="467" type="curve" smooth="yes"/>
      <point x="414" y="413"/>
      <point x="403" y="358"/>
      <point x="127" y="358" type="curve"/>
      <point x="114" y="295" type="line"/>
      <point x="387" y="295"/>
      <point x="505" y="344"/>
      <point x="521" y="462" type="curve" smooth="yes"/>
      <point x="539" y="597"/>
      <point x="423" y="650"/>
      <point x="166" y="650" type="curve" smooth="yes"/>
      <point x="143" y="650"/>
      <point x="123" y="642"/>
      <point x="117" y="609" type="curve" smooth="yes"/>
      <point x="19" y="53" type="line" smooth="yes"/>
      <point x="14" y="23"/>
      <point x="35" y="0"/>
    </contour>
  </outline>
</glyph>
<glyph name="C" format="2">
	<advance width="596"/>
	<unicode hex="0043"/>
	<outline>
		<contour>
			<point x="234" y="0" type="curve" smooth="yes"/>
			<point x="320" y="0"/>
			<point x="402" y="40"/>
			<point x="459" y="103" type="curve" smooth="yes"/>
			<point x="484" y="130"/>
			<point x="493" y="143"/>
			<point x="493" y="162" type="curve" smooth="yes"/>
			<point x="493" y="180"/>
			<point x="479" y="196"/>
			<point x="453" y="196" type="curve" smooth="yes"/>
			<point x="437" y="196"/>
			<point x="417" y="190"/>
			<point x="393" y="164" type="curve" smooth="yes"/>
			<point x="345" y="111"/>
			<point x="285" y="90"/>
			<point x="235" y="90" type="curve" smooth="yes"/>
			<point x="181" y="90"/>
			<point x="116" y="148"/>
			<point x="143" y="304" type="curve" smooth="yes"/>
			<point x="161" y="408"/>
			<point x="198" y="560"/>
			<point x="361" y="560" type="curve" smooth="yes"/>
			<point x="407" y="560"/>
			<point x="439" y="550"/>
			<point x="471" y="520" type="curve" smooth="yes"/>
			<point x="495" y="498"/>
			<point x="525" y="489"/>
			<point x="547" y="511" type="curve" smooth="yes"/>
			<point x="570" y="534"/>
			<point x="557" y="563"/>
			<point x="532" y="586" type="curve" smooth="yes"/>
			<point x="479" y="634"/>
			<point x="424" y="650"/>
			<point x="362" y="650" type="curve" smooth="yes"/>
			<point x="138" y="650"/>
			<point x="70" y="459"/>
			<point x="43" y="305" type="curve" smooth="yes"/>
			<point x="6" y="96"/>
			<point x="138" y="0"/>
		</contour>
	</outline>
</glyph>
<glyph name="D" format="2">
	<advance width="594"/>
	<unicode hex="0044"/>
	<outline>
		<contour>
			<point x="70" y="0" type="line"/>
			<point x="148" y="0" type="line" smooth="yes"/>
			<point x="341" y="0"/>
			<point x="515" y="129"/>
			<point x="545" y="351" type="curve" smooth="yes"/>
			<point x="568" y="523"/>
			<point x="417" y="650"/>
			<point x="225" y="650" type="curve" smooth="yes"/>
			<point x="175" y="650" type="line"/>
			<point x="205" y="561" type="line"/>
			<point x="230" y="561" type="line" smooth="yes"/>
			<point x="368" y="561"/>
			<point x="464" y="473"/>
			<point x="448" y="350" type="curve" smooth="yes"/>
			<point x="425" y="177"/>
			<point x="291" y="89"/>
			<point x="148" y="89" type="curve" smooth="yes"/>
			<point x="120" y="89" type="line"/>
		</contour>
		<contour>
			<point x="72" y="0" type="curve" smooth="yes"/>
			<point x="99" y="0"/>
			<point x="120" y="15"/>
			<point x="125" y="41" type="curve" smooth="yes"/>
			<point x="224" y="600" type="line" smooth="yes"/>
			<point x="231" y="641"/>
			<point x="204" y="650"/>
			<point x="176" y="650" type="curve" smooth="yes"/>
			<point x="144" y="650"/>
			<point x="129" y="636"/>
			<point x="124" y="609" type="curve" smooth="yes"/>
			<point x="25" y="49" type="line" smooth="yes"/>
			<point x="20" y="21"/>
			<point x="40" y="0"/>
		</contour>
	</outline>
</glyph>
<glyph name="E" format="2">
	<advance width="584"/>
	<unicode hex="0045"/>
	<outline>
		<contour>
			<point x="62" y="0" type="curve" smooth="yes"/>
			<point x="94" y="0"/>
			<point x="122" y="18"/>
			<point x="126" y="40" type="curve" smooth="yes"/>
			<point x="224" y="597" type="line" smooth="yes"/>
			<point x="231" y="638"/>
			<point x="205" y="650"/>
			<point x="177" y="650" type="curve" smooth="yes"/>
			<point x="146" y="650"/>
			<point x="129" y="639"/>
			<point x="124" y="611" type="curve" smooth="yes"/>
			<point x="25" y="50" type="line" smooth="yes"/>
			<point x="20" y="22"/>
			<point x="32" y="0"/>
		</contour>
		<contour>
			<point x="69" y="0" type="line"/>
			<point x="409" y="0" type="line" smooth="yes"/>
			<point x="439" y="0"/>
			<point x="459" y="16"/>
			<point x="459" y="42" type="curve" smooth="yes"/>
			<point x="459" y="66"/>
			<point x="443" y="80"/>
			<point x="411" y="80" type="curve" smooth="yes"/>
			<point x="125" y="80" type="line"/>
		</contour>
		<contour>
			<point x="153" y="265" type="line"/>
			<point x="427" y="265" type="line" smooth="yes"/>
			<point x="459" y="265"/>
			<point x="481" y="284"/>
			<point x="481" y="308" type="curve" smooth="yes"/>
			<point x="481" y="334"/>
			<point x="462" y="350"/>
			<point x="432" y="350" type="curve" smooth="yes"/>
			<point x="169" y="350" type="line"/>
		</contour>
		<contour>
			<point x="206" y="555" type="line"/>
			<point x="508" y="555" type="line" smooth="yes"/>
			<point x="538" y="555"/>
			<point x="559" y="580"/>
			<point x="559" y="606" type="curve" smooth="yes"/>
			<point x="559" y="631"/>
			<point x="541" y="650"/>
			<point x="510" y="650" type="curve" smooth="yes"/>
			<point x="184" y="650" type="line"/>
		</contour>
	</outline>
</glyph>
<glyph name="F" format="2">
	<advance width="584"/>
	<unicode hex="0046"/>
	<outline>
		<contour>
			<point x="70" y="0" type="curve" smooth="yes"/>
			<point x="101" y="0"/>
			<point x="121" y="21"/>
			<point x="126" y="51" type="curve" smooth="yes"/>
			<point x="222" y="597" type="line" smooth="yes"/>
			<point x="229" y="638"/>
			<point x="203" y="650"/>
			<point x="175" y="650" type="curve" smooth="yes"/>
			<point x="144" y="650"/>
			<point x="129" y="638"/>
			<point x="124" y="610" type="curve" smooth="yes"/>
			<point x="26" y="54" type="line" smooth="yes"/>
			<point x="21" y="27"/>
			<point x="31" y="0"/>
		</contour>
		<contour>
			<point x="153" y="265" type="line"/>
			<point x="432" y="265" type="line" smooth="yes"/>
			<point x="464" y="265"/>
			<point x="481" y="284"/>
			<point x="481" y="308" type="curve" smooth="yes"/>
			<point x="481" y="334"/>
			<point x="463" y="350"/>
			<point x="433" y="350" type="curve" smooth="yes"/>
			<point x="168" y="350" type="line"/>
		</contour>
		<contour>
			<point x="205" y="555" type="line"/>
			<point x="505" y="555" type="line" smooth="yes"/>
			<point x="535" y="555"/>
			<point x="559" y="575"/>
			<point x="559" y="604" type="curve" smooth="yes"/>
			<point x="559" y="632"/>
			<point x="541" y="650"/>
			<point x="510" y="650" type="curve" smooth="yes"/>
			<point x="178" y="650" type="line"/>
		</contour>
	</outline>
</glyph>
<glyph name="G" format="2">
	<advance width="596"/>
	<unicode hex="0047"/>
	<outline>
		<contour>
			<point x="418" y="0" type="curve" smooth="yes"/>
			<point x="453" y="0"/>
			<point x="462" y="18"/>
			<point x="466" y="42" type="curve" smooth="yes"/>
			<point x="506" y="267" type="line" smooth="yes"/>
			<point x="511" y="298"/>
			<point x="495" y="317"/>
			<point x="464" y="317" type="curve" smooth="yes"/>
			<point x="425" y="317"/>
			<point x="411" y="283"/>
			<point x="409" y="274" type="curve" smooth="yes"/>
			<point x="369" y="49" type="line" smooth="yes"/>
			<point x="363" y="18"/>
			<point x="384" y="0"/>
		</contour>
		<contour>
			<point x="234" y="0" type="curve" smooth="yes"/>
			<point x="327" y="0"/>
			<point x="414" y="109"/>
			<point x="468" y="209" type="curve"/>
			<point x="463" y="317" type="line"/>
			<point x="444" y="317"/>
			<point x="423" y="312"/>
			<point x="397" y="266" type="curve" smooth="yes"/>
			<point x="347" y="178"/>
			<point x="282" y="90"/>
			<point x="235" y="90" type="curve" smooth="yes"/>
			<point x="181" y="90"/>
			<point x="116" y="148"/>
			<point x="143" y="304" type="curve" smooth="yes"/>
			<point x="161" y="408"/>
			<point x="198" y="560"/>
			<point x="361" y="560" type="curve" smooth="yes"/>
			<point x="407" y="560"/>
			<point x="439" y="550"/>
			<point x="471" y="520" type="curve" smooth="yes"/>
			<point x="495" y="498"/>
			<point x="525" y="489"/>
			<point x="547" y="511" type="curve" smooth="yes"/>
			<point x="570" y="534"/>
			<point x="557" y="563"/>
			<point x="532" y="586" type="curve" smooth="yes"/>
			<point x="479" y="634"/>
			<point x="424" y="650"/>
			<point x="362" y="650" type="curve" smooth="yes"/>
			<point x="138" y="650"/>
			<point x="70" y="459"/>
			<point x="43" y="305" type="curve" smooth="yes"/>
			<point x="6" y="96"/>
			<point x="138" y="0"/>
		</contour>
	</outline>
</glyph>
<glyph name="H" format="2">
  <advance width="566"/>
  <unicode hex="0048"/>
  <outline>
    <contour>
      <point x="66" y="0" type="curve" smooth="yes"/>
      <point x="100" y="0"/>
      <point x="116" y="20"/>
      <point x="119" y="40" type="curve" smooth="yes"/>
      <point x="216" y="597" type="line" smooth="yes"/>
      <point x="222" y="632"/>
      <point x="204" y="650"/>
      <point x="175" y="650" type="curve" smooth="yes"/>
      <point x="148" y="650"/>
      <point x="122" y="637"/>
      <point x="117" y="609" type="curve" smooth="yes"/>
      <point x="19" y="49" type="line" smooth="yes"/>
      <point x="14" y="21"/>
      <point x="34" y="0"/>
    </contour>
    <contour>
      <point x="112" y="287" type="line"/>
      <point x="445" y="287" type="line"/>
      <point x="459" y="367" type="line"/>
      <point x="126" y="367" type="line"/>
    </contour>
    <contour>
      <point x="399" y="0" type="curve" smooth="yes"/>
      <point x="428" y="0"/>
      <point x="449" y="17"/>
      <point x="453" y="37" type="curve" smooth="yes"/>
      <point x="551" y="599" type="line" smooth="yes"/>
      <point x="557" y="631"/>
      <point x="536" y="650"/>
      <point x="505" y="650" type="curve" smooth="yes"/>
      <point x="477" y="650"/>
      <point x="456" y="635"/>
      <point x="452" y="613" type="curve" smooth="yes"/>
      <point x="354" y="49" type="line" smooth="yes"/>
      <point x="349" y="20"/>
      <point x="366" y="0"/>
    </contour>
  </outline>
</glyph>
<glyph name="I" format="2">
  <advance width="394"/>
  <unicode hex="0049"/>
  <outline>
    <contour>
      <point x="98" y="39" type="line"/>
      <point x="199" y="39" type="line"/>
      <point x="298" y="612" type="line"/>
      <point x="197" y="612" type="line"/>
    </contour>
    <contour>
      <point x="54" y="0" type="curve" smooth="yes"/>
      <point x="232" y="0" type="line" smooth="yes"/>
      <point x="265" y="0"/>
      <point x="276" y="15"/>
      <point x="280" y="39" type="curve" smooth="yes"/>
      <point x="284" y="63"/>
      <point x="271" y="78"/>
      <point x="246" y="78" type="curve" smooth="yes"/>
      <point x="68" y="78" type="line" smooth="yes"/>
      <point x="36" y="78"/>
      <point x="21" y="63"/>
      <point x="17" y="39" type="curve" smooth="yes"/>
      <point x="13" y="15"/>
      <point x="29" y="0"/>
    </contour>
    <contour>
      <point x="154" y="570" type="curve" smooth="yes"/>
      <point x="332" y="570" type="line" smooth="yes"/>
      <point x="364" y="570"/>
      <point x="378" y="588"/>
      <point x="382" y="612" type="curve" smooth="yes"/>
      <point x="386" y="636"/>
      <point x="369" y="650"/>
      <point x="346" y="650" type="curve" smooth="yes"/>
      <point x="168" y="650" type="line" smooth="yes"/>
      <point x="137" y="650"/>
      <point x="123" y="636"/>
      <point x="119" y="612" type="curve" smooth="yes"/>
      <point x="115" y="588"/>
      <point x="131" y="570"/>
    </contour>
  </outline>
</glyph>
<glyph name="J" format="2">
  <advance width="621"/>
  <unicode hex="004A"/>
  <outline>
    <contour>
      <point x="68" y="0" type="curve" smooth="yes"/>
      <point x="98" y="0"/>
      <point x="184" y="2"/>
      <point x="202" y="4" type="curve" smooth="yes"/>
      <point x="384" y="26"/>
      <point x="382" y="158"/>
      <point x="407" y="294" type="curve" smooth="yes"/>
      <point x="462" y="602" type="line"/>
      <point x="360" y="602" type="line"/>
      <point x="308" y="306" type="line" smooth="yes"/>
      <point x="290" y="200"/>
      <point x="280" y="105"/>
      <point x="200" y="95" type="curve" smooth="yes"/>
      <point x="176" y="92"/>
      <point x="89" y="90"/>
      <point x="68" y="90" type="curve" smooth="yes"/>
      <point x="44" y="90"/>
      <point x="19" y="71"/>
      <point x="19" y="45" type="curve" smooth="yes"/>
      <point x="19" y="18"/>
      <point x="44" y="0"/>
    </contour>
    <contour>
      <point x="268" y="555" type="curve" smooth="yes"/>
      <point x="556" y="555" type="line" smooth="yes"/>
      <point x="588" y="555"/>
      <point x="606" y="576"/>
      <point x="606" y="602" type="curve" smooth="yes"/>
      <point x="606" y="630"/>
      <point x="587" y="650"/>
      <point x="557" y="650" type="curve" smooth="yes"/>
      <point x="269" y="650" type="line" smooth="yes"/>
      <point x="238" y="650"/>
      <point x="219" y="629"/>
      <point x="219" y="602" type="curve" smooth="yes"/>
      <point x="219" y="574"/>
      <point x="238" y="555"/>
    </contour>
  </outline>
</glyph>
<glyph name="K" format="2">
	<advance width="534"/>
	<unicode hex="004B"/>
	<outline>
		<contour>
			<point x="238" y="318" type="line"/>
			<point x="534" y="560" type="line" smooth="yes"/>
			<point x="548" y="572"/>
			<point x="557" y="587"/>
			<point x="559" y="602" type="curve" smooth="yes"/>
			<point x="562" y="625"/>
			<point x="544" y="650"/>
			<point x="515" y="650" type="curve" smooth="yes"/>
			<point x="499" y="650"/>
			<point x="479" y="644"/>
			<point x="463" y="631" type="curve" smooth="yes"/>
			<point x="142" y="368" type="line"/>
			<point x="142" y="326" type="line"/>
		</contour>
		<contour>
			<point x="408" y="0" type="curve" smooth="yes"/>
			<point x="428" y="0"/>
			<point x="451" y="10"/>
			<point x="455" y="31" type="curve" smooth="yes"/>
			<point x="458" y="44"/>
			<point x="457" y="60"/>
			<point x="447" y="74" type="curve" smooth="yes"/>
			<point x="242" y="368" type="line"/>
			<point x="142" y="382" type="line"/>
			<point x="141" y="338" type="line"/>
			<point x="359" y="25" type="line" smooth="yes"/>
			<point x="370" y="9"/>
			<point x="389" y="0"/>
		</contour>
		<contour>
			<point x="74" y="0" type="curve" smooth="yes"/>
			<point x="105" y="0"/>
			<point x="121" y="19"/>
			<point x="126" y="45" type="curve" smooth="yes"/>
			<point x="224" y="597" type="line" smooth="yes"/>
			<point x="231" y="636"/>
			<point x="204" y="650"/>
			<point x="180" y="650" type="curve" smooth="yes"/>
			<point x="154" y="650"/>
			<point x="130" y="637"/>
			<point x="125" y="609" type="curve" smooth="yes"/>
			<point x="26" y="54" type="line" smooth="yes"/>
			<point x="21" y="24"/>
			<point x="42" y="0"/>
		</contour>
	</outline>
</glyph>
<glyph name="L" format="2">
	<advance width="537"/>
	<unicode hex="004C"/>
	<outline>
		<contour>
			<point x="68" y="0" type="curve" smooth="yes"/>
			<point x="102" y="0"/>
			<point x="121" y="18"/>
			<point x="125" y="39" type="curve" smooth="yes"/>
			<point x="224" y="597" type="line" smooth="yes"/>
			<point x="231" y="639"/>
			<point x="207" y="650"/>
			<point x="182" y="650" type="curve" smooth="yes"/>
			<point x="153" y="650"/>
			<point x="129" y="637"/>
			<point x="124" y="609" type="curve" smooth="yes"/>
			<point x="25" y="49" type="line" smooth="yes"/>
			<point x="20" y="21"/>
			<point x="38" y="0"/>
		</contour>
		<contour>
			<point x="69" y="0" type="line"/>
			<point x="414" y="0" type="line" smooth="yes"/>
			<point x="444" y="0"/>
			<point x="464" y="22"/>
			<point x="464" y="46" type="curve" smooth="yes"/>
			<point x="464" y="70"/>
			<point x="444" y="90"/>
			<point x="414" y="90" type="curve" smooth="yes"/>
			<point x="124" y="90" type="line"/>
		</contour>
	</outline>
</glyph>
<glyph name="M" format="2">
  <advance width="852"/>
  <unicode hex="004D"/>
  <outline>
    <contour>
      <point x="33" y="0" type="curve" smooth="yes"/>
      <point x="51" y="0"/>
      <point x="79" y="9"/>
      <point x="91" y="33" type="curve" smooth="yes"/>
      <point x="309" y="459" type="line"/>
      <point x="300" y="462" type="line"/>
      <point x="332" y="40" type="line" smooth="yes"/>
      <point x="334" y="18"/>
      <point x="351" y="0"/>
      <point x="381" y="0" type="curve" smooth="yes"/>
      <point x="421.0" y="0.0"/>
      <point x="431" y="19"/>
      <point x="437" y="31" type="curve" smooth="yes"/>
      <point x="657" y="459" type="line"/>
      <point x="649" y="462" type="line"/>
      <point x="679" y="40" type="line" smooth="yes"/>
      <point x="680" y="19"/>
      <point x="702" y="0"/>
      <point x="733" y="0" type="curve" smooth="yes"/>
      <point x="762" y="0"/>
      <point x="781" y="20"/>
      <point x="779" y="46" type="curve" smooth="yes"/>
      <point x="733" y="606" type="line" smooth="yes"/>
      <point x="731" y="635"/>
      <point x="725" y="650"/>
      <point x="689" y="650" type="curve" smooth="yes"/>
      <point x="660.0" y="650.0"/>
      <point x="642" y="638"/>
      <point x="631" y="616" type="curve" smooth="yes"/>
      <point x="408" y="184" type="line"/>
      <point x="416" y="181" type="line"/>
      <point x="385" y="606" type="line" smooth="yes"/>
      <point x="383" y="635"/>
      <point x="371" y="650"/>
      <point x="330" y="650" type="curve" smooth="yes"/>
      <point x="303.0" y="650.0"/>
      <point x="294" y="638"/>
      <point x="283" y="617" type="curve" smooth="yes"/>
      <point x="-6" y="64" type="line" smooth="yes"/>
      <point x="-24.0" y="30.0"/>
      <point x="3.0" y="0.0"/>
    </contour>
  </outline>
</glyph>
<glyph name="N" format="2">
  <advance width="566"/>
  <unicode hex="004E"/>
  <outline>
    <contour>
      <point x="62" y="0" type="curve" smooth="yes"/>
      <point x="95" y="0"/>
      <point x="115" y="19"/>
      <point x="119" y="42" type="curve" smooth="yes"/>
      <point x="189" y="463" type="line"/>
      <point x="177" y="460" type="line"/>
      <point x="358" y="28" type="line" smooth="yes"/>
      <point x="366" y="10"/>
      <point x="381" y="0"/>
      <point x="406" y="0" type="curve"/>
      <point x="440" y="0"/>
      <point x="449" y="19"/>
      <point x="453" y="40" type="curve" smooth="yes"/>
      <point x="551" y="597" type="line" smooth="yes"/>
      <point x="557" y="629"/>
      <point x="541" y="653"/>
      <point x="508" y="653" type="curve" smooth="yes"/>
      <point x="480" y="653"/>
      <point x="457" y="637"/>
      <point x="452" y="609" type="curve" smooth="yes"/>
      <point x="382" y="184" type="line"/>
      <point x="394" y="187" type="line"/>
      <point x="212" y="620" type="line" smooth="yes"/>
      <point x="203" y="641"/>
      <point x="185" y="650"/>
      <point x="165" y="650" type="curve"/>
      <point x="140" y="650"/>
      <point x="123" y="636"/>
      <point x="118" y="609" type="curve" smooth="yes"/>
      <point x="19" y="49" type="line" smooth="yes"/>
      <point x="14" y="21"/>
      <point x="33" y="0"/>
    </contour>
  </outline>
</glyph>
<glyph name="O" format="2">
	<advance width="584"/>
	<unicode hex="004F"/>
	<outline>
		<contour>
			<point x="244" y="0" type="curve" smooth="yes"/>
			<point x="441" y="0"/>
			<point x="518" y="256"/>
			<point x="541" y="387" type="curve" smooth="yes"/>
			<point x="570" y="551"/>
			<point x="517" y="650"/>
			<point x="350" y="650" type="curve" smooth="yes"/>
			<point x="147" y="650"/>
			<point x="71" y="467"/>
			<point x="47" y="329" type="curve" smooth="yes"/>
			<point x="19" y="167"/>
			<point x="46" y="0"/>
		</contour>
		<contour>
			<point x="243" y="90" type="curve" smooth="yes"/>
			<point x="122" y="90"/>
			<point x="125" y="202"/>
			<point x="146" y="319" type="curve" smooth="yes"/>
			<point x="162" y="406"/>
			<point x="211" y="560"/>
			<point x="345" y="560" type="curve" smooth="yes"/>
			<point x="453" y="560"/>
			<point x="461" y="495"/>
			<point x="441" y="381" type="curve" smooth="yes"/>
			<point x="422" y="271"/>
			<point x="347" y="90"/>
		</contour>
	</outline>
</glyph>
<glyph name="P" format="2">
  <advance width="546"/>
  <unicode hex="0050"/>
  <outline>
    <contour>
      <point x="65" y="0" type="curve" smooth="yes"/>
      <point x="99" y="0"/>
      <point x="112" y="17"/>
      <point x="116" y="39" type="curve" smooth="yes"/>
      <point x="208" y="562" type="line"/>
      <point x="413" y="562"/>
      <point x="439" y="533"/>
      <point x="431" y="472" type="curve" smooth="yes"/>
      <point x="420" y="382"/>
      <point x="281" y="364"/>
      <point x="126" y="363" type="curve"/>
      <point x="114" y="273" type="line"/>
      <point x="310" y="274"/>
      <point x="503" y="289"/>
      <point x="528" y="467" type="curve" smooth="yes"/>
      <point x="547" y="602"/>
      <point x="415" y="650"/>
      <point x="170" y="650" type="curve" smooth="yes"/>
      <point x="140" y="650"/>
      <point x="122" y="637"/>
      <point x="117" y="609" type="curve" smooth="yes"/>
      <point x="18" y="48" type="line" smooth="yes"/>
      <point x="13" y="21"/>
      <point x="32" y="0"/>
    </contour>
  </outline>
</glyph>
<glyph name="Q" format="2">
	<advance width="584"/>
	<unicode hex="0051"/>
	<outline>
		<contour>
			<point x="422" y="-71" type="curve" smooth="yes"/>
			<point x="448" y="-57"/>
			<point x="450" y="-28"/>
			<point x="434" y="-4" type="curve" smooth="yes"/>
			<point x="334" y="143" type="line"/>
			<point x="313" y="170"/>
			<point x="278" y="175"/>
			<point x="260" y="160" type="curve" smooth="yes"/>
			<point x="241" y="145"/>
			<point x="235" y="120"/>
			<point x="253" y="93" type="curve" smooth="yes"/>
			<point x="351" y="-50" type="line" smooth="yes"/>
			<point x="369" y="-76"/>
			<point x="401" y="-84"/>
		</contour>
		<contour>
			<point x="244" y="0" type="curve" smooth="yes"/>
			<point x="441" y="0"/>
			<point x="518" y="256"/>
			<point x="541" y="387" type="curve" smooth="yes"/>
			<point x="570" y="551"/>
			<point x="517" y="650"/>
			<point x="350" y="650" type="curve" smooth="yes"/>
			<point x="147" y="650"/>
			<point x="71" y="467"/>
			<point x="47" y="329" type="curve" smooth="yes"/>
			<point x="19" y="167"/>
			<point x="46" y="0"/>
		</contour>
		<contour>
			<point x="243" y="90" type="curve" smooth="yes"/>
			<point x="122" y="90"/>
			<point x="125" y="202"/>
			<point x="146" y="319" type="curve" smooth="yes"/>
			<point x="162" y="406"/>
			<point x="211" y="560"/>
			<point x="345" y="560" type="curve" smooth="yes"/>
			<point x="453" y="560"/>
			<point x="461" y="495"/>
			<point x="441" y="381" type="curve" smooth="yes"/>
			<point x="422" y="271"/>
			<point x="347" y="90"/>
		</contour>
	</outline>
</glyph>
<glyph name="R" format="2">
	<advance width="534"/>
	<unicode hex="0052"/>
	<outline>
		<contour>
			<point x="154" y="273" type="line"/>
			<point x="314" y="273"/>
			<point x="503" y="289"/>
			<point x="535" y="467" type="curve" smooth="yes"/>
			<point x="559" y="602"/>
			<point x="422" y="650"/>
			<point x="175" y="650" type="curve"/>
			<point x="199" y="560" type="line"/>
			<point x="391" y="563"/>
			<point x="449" y="533"/>
			<point x="438" y="470" type="curve" smooth="yes"/>
			<point x="423" y="382"/>
			<point x="290" y="363"/>
			<point x="158" y="363" type="curve"/>
		</contour>
		<contour>
			<point x="413" y="0" type="curve" smooth="yes"/>
			<point x="432" y="0"/>
			<point x="453" y="11"/>
			<point x="458" y="29" type="curve" smooth="yes"/>
			<point x="462" y="42"/>
			<point x="463" y="57"/>
			<point x="453" y="69" type="curve" smooth="yes"/>
			<point x="246" y="318" type="line"/>
			<point x="117" y="318" type="line"/>
			<point x="361" y="23" type="line" smooth="yes"/>
			<point x="378" y="3"/>
			<point x="400" y="0"/>
		</contour>
		<contour>
			<point x="65" y="0" type="curve" smooth="yes"/>
			<point x="96" y="0"/>
			<point x="122" y="23"/>
			<point x="127" y="53" type="curve" smooth="yes"/>
			<point x="223" y="597" type="line" smooth="yes"/>
			<point x="230" y="638"/>
			<point x="207" y="650"/>
			<point x="179" y="650" type="curve" smooth="yes"/>
			<point x="148" y="650"/>
			<point x="129" y="637"/>
			<point x="124" y="609" type="curve" smooth="yes"/>
			<point x="26" y="54" type="line" smooth="yes"/>
			<point x="21" y="24"/>
			<point x="33" y="0"/>
		</contour>
	</outline>
</glyph>
<glyph name="S" format="2">
	<advance width="458"/>
	<unicode hex="0053"/>
	<outline>
		<contour>
			<point x="131" y="0" type="curve" smooth="yes"/>
			<point x="268" y="0"/>
			<point x="379" y="51"/>
			<point x="401" y="174" type="curve" smooth="yes"/>
			<point x="420" y="285"/>
			<point x="339" y="341"/>
			<point x="277" y="385" type="curve" smooth="yes"/>
			<point x="226" y="421"/>
			<point x="162" y="456"/>
			<point x="162" y="484" type="curve" smooth="yes"/>
			<point x="162" y="522"/>
			<point x="227" y="560"/>
			<point x="305" y="560" type="curve" smooth="yes"/>
			<point x="349" y="560"/>
			<point x="372" y="549"/>
			<point x="376" y="526" type="curve" smooth="yes"/>
			<point x="381" y="496"/>
			<point x="411" y="489"/>
			<point x="433" y="495" type="curve" smooth="yes"/>
			<point x="458" y="503"/>
			<point x="467" y="524"/>
			<point x="463" y="548" type="curve" smooth="yes"/>
			<point x="449" y="621"/>
			<point x="400" y="650"/>
			<point x="320" y="650" type="curve" smooth="yes"/>
			<point x="163" y="650"/>
			<point x="65" y="573"/>
			<point x="65" y="480" type="curve" smooth="yes"/>
			<point x="65" y="392"/>
			<point x="156" y="352"/>
			<point x="210" y="313" type="curve" smooth="yes"/>
			<point x="274" y="266"/>
			<point x="313" y="227"/>
			<point x="306" y="184" type="curve" smooth="yes"/>
			<point x="296" y="122"/>
			<point x="246" y="92"/>
			<point x="175" y="92" type="curve" smooth="yes"/>
			<point x="113" y="92"/>
			<point x="91" y="103"/>
			<point x="87" y="124" type="curve" smooth="yes"/>
			<point x="81" y="153"/>
			<point x="52" y="160"/>
			<point x="31" y="154" type="curve" smooth="yes"/>
			<point x="5" y="148"/>
			<point x="-5" y="126"/>
			<point x="0" y="102" type="curve" smooth="yes"/>
			<point x="12" y="34"/>
			<point x="57" y="0"/>
		</contour>
	</outline>
</glyph>
<glyph name="T" format="2">
	<advance width="561"/>
	<unicode hex="0054"/>
	<outline>
		<contour>
			<point x="256" y="-1" type="curve" smooth="yes"/>
			<point x="289" y="-1"/>
			<point x="306" y="18"/>
			<point x="310" y="39" type="curve" smooth="yes"/>
			<point x="405" y="580" type="line"/>
			<point x="304" y="580" type="line"/>
			<point x="210" y="49" type="line" smooth="yes"/>
			<point x="205" y="21"/>
			<point x="225" y="-1"/>
		</contour>
		<contour>
			<point x="147" y="563" type="curve" smooth="yes"/>
			<point x="571" y="563" type="line" smooth="yes"/>
			<point x="603" y="563"/>
			<point x="621" y="583"/>
			<point x="621" y="607" type="curve" smooth="yes"/>
			<point x="621" y="633"/>
			<point x="601" y="653"/>
			<point x="571" y="653" type="curve" smooth="yes"/>
			<point x="147" y="653" type="line" smooth="yes"/>
			<point x="117" y="653"/>
			<point x="97" y="633"/>
			<point x="97" y="607" type="curve" smooth="yes"/>
			<point x="97" y="583"/>
			<point x="115" y="563"/>
		</contour>
	</outline>
</glyph>
<glyph name="U" format="2">
	<advance width="584"/>
	<unicode hex="0055"/>
	<outline>
		<contour>
			<point x="141" y="-4" type="curve" smooth="yes"/>
			<point x="259" y="-4"/>
			<point x="338" y="108"/>
			<point x="424" y="247" type="curve"/>
			<point x="497" y="385" type="line"/>
			<point x="531" y="543" type="line"/>
			<point x="453" y="543" type="line"/>
			<point x="445" y="510" type="line" smooth="yes"/>
			<point x="424" y="423"/>
			<point x="392" y="369"/>
			<point x="375" y="342" type="curve" smooth="yes"/>
			<point x="331" y="270"/>
			<point x="226" y="86"/>
			<point x="157" y="86" type="curve" smooth="yes"/>
			<point x="138" y="86"/>
			<point x="140" y="125"/>
			<point x="151" y="185" type="curve" smooth="yes"/>
			<point x="225" y="600" type="line" smooth="yes"/>
			<point x="230" y="629"/>
			<point x="209" y="650"/>
			<point x="180" y="650" type="curve" smooth="yes"/>
			<point x="148" y="651"/>
			<point x="128" y="624"/>
			<point x="125" y="606" type="curve" smooth="yes"/>
			<point x="51" y="195" type="line" smooth="yes"/>
			<point x="26" y="57"/>
			<point x="68" y="-4"/>
		</contour>
		<contour>
			<point x="407" y="0" type="curve" smooth="yes"/>
			<point x="430" y="0"/>
			<point x="456" y="12"/>
			<point x="460" y="37" type="curve" smooth="yes"/>
			<point x="559" y="602" type="line" smooth="yes"/>
			<point x="564" y="630"/>
			<point x="546" y="650"/>
			<point x="512" y="650" type="curve" smooth="yes"/>
			<point x="484" y="650"/>
			<point x="463" y="635"/>
			<point x="459" y="612" type="curve" smooth="yes"/>
			<point x="361" y="49" type="line" smooth="yes"/>
			<point x="355" y="16"/>
			<point x="379" y="0"/>
		</contour>
	</outline>
</glyph>
<glyph name="V" format="2">
  <advance width="475"/>
  <unicode hex="0056"/>
  <outline>
    <contour>
      <point x="170" y="-2" type="curve" smooth="yes"/>
      <point x="199.0" y="-2.0"/>
      <point x="211" y="15"/>
      <point x="221" y="34" type="curve" smooth="yes"/>
      <point x="497" y="591" type="line" smooth="yes"/>
      <point x="514" y="625"/>
      <point x="492" y="650"/>
      <point x="460" y="650" type="curve" smooth="yes"/>
      <point x="431" y="650"/>
      <point x="412" y="638"/>
      <point x="402" y="618" type="curve" smooth="yes"/>
      <point x="198" y="195" type="line"/>
      <point x="205" y="192" type="line"/>
      <point x="185" y="610" type="line" smooth="yes"/>
      <point x="184" y="633"/>
      <point x="166" y="650"/>
      <point x="134" y="650" type="curve" smooth="yes"/>
      <point x="105" y="650"/>
      <point x="86" y="634"/>
      <point x="88" y="604" type="curve" smooth="yes"/>
      <point x="120" y="44" type="line" smooth="yes"/>
      <point x="121" y="19"/>
      <point x="141" y="-2"/>
    </contour>
  </outline>
</glyph>
<glyph name="W" format="2">
	<advance width="783"/>
	<unicode hex="0057"/>
	<outline>
		<contour>
			<point x="499" y="0" type="line"/>
			<point x="527" y="0"/>
			<point x="540" y="12"/>
			<point x="550" y="33" type="curve" smooth="yes"/>
			<point x="824" y="591" type="line" smooth="yes"/>
			<point x="830" y="604"/>
			<point x="830" y="616"/>
			<point x="824" y="628" type="curve" smooth="yes"/>
			<point x="818" y="644"/>
			<point x="800" y="650"/>
			<point x="785" y="650" type="curve" smooth="yes"/>
			<point x="771" y="650"/>
			<point x="758" y="646"/>
			<point x="750" y="640" type="curve" smooth="yes"/>
			<point x="740" y="633"/>
			<point x="733" y="625"/>
			<point x="728" y="615" type="curve" smooth="yes"/>
			<point x="514" y="171" type="line"/>
		</contour>
		<contour>
			<point x="173" y="0" type="curve"/>
			<point x="205" y="156" type="line"/>
			<point x="185" y="610" type="line" smooth="yes"/>
			<point x="184" y="633"/>
			<point x="167" y="650"/>
			<point x="135" y="650" type="curve" smooth="yes"/>
			<point x="106" y="650"/>
			<point x="86" y="634"/>
			<point x="88" y="604" type="curve" smooth="yes"/>
			<point x="118" y="44" type="line" smooth="yes"/>
			<point x="120" y="15"/>
			<point x="139" y="0"/>
		</contour>
		<contour>
			<point x="172" y="0" type="line"/>
			<point x="203" y="0"/>
			<point x="210" y="14"/>
			<point x="220" y="34" type="curve" smooth="yes"/>
			<point x="450" y="495" type="line"/>
			<point x="453" y="650" type="line"/>
			<point x="419" y="650"/>
			<point x="410" y="631"/>
			<point x="404" y="619" type="curve" smooth="yes"/>
			<point x="176" y="156" type="line"/>
		</contour>
		<contour>
			<point x="500" y="0" type="curve"/>
			<point x="537" y="171" type="line"/>
			<point x="506" y="610" type="line" smooth="yes"/>
			<point x="504" y="635"/>
			<point x="487" y="650"/>
			<point x="452" y="650" type="curve"/>
			<point x="420" y="494" type="line"/>
			<point x="451" y="32" type="line" smooth="yes"/>
			<point x="452" y="15"/>
			<point x="481" y="0"/>
		</contour>
	</outline>
</glyph>
<glyph name="X" format="2">
	<advance width="529"/>
	<unicode hex="0058"/>
	<outline>
		<contour>
			<point x="39" y="13" type="curve" smooth="yes"/>
			<point x="58" y="-3"/>
			<point x="98" y="-8"/>
			<point x="115" y="16" type="curve" smooth="yes"/>
			<point x="518" y="578" type="line" smooth="yes"/>
			<point x="535" y="602"/>
			<point x="531" y="623"/>
			<point x="513" y="639" type="curve" smooth="yes"/>
			<point x="495" y="655"/>
			<point x="459" y="656"/>
			<point x="441" y="631" type="curve" smooth="yes"/>
			<point x="36" y="69" type="line" smooth="yes"/>
			<point x="21" y="48"/>
			<point x="21" y="29"/>
		</contour>
		<contour>
			<point x="410" y="6" type="curve" smooth="yes"/>
			<point x="431" y="17"/>
			<point x="441" y="36"/>
			<point x="431" y="61" type="curve" smooth="yes"/>
			<point x="219" y="623" type="line" smooth="yes"/>
			<point x="208" y="651"/>
			<point x="176" y="654"/>
			<point x="153" y="647" type="curve" smooth="yes"/>
			<point x="127" y="637"/>
			<point x="118" y="617"/>
			<point x="130" y="586" type="curve" smooth="yes"/>
			<point x="338" y="28" type="line" smooth="yes"/>
			<point x="349" y="-1"/>
			<point x="387" y="-6"/>
		</contour>
	</outline>
</glyph>
<glyph name="Y" format="2">
	<advance width="497"/>
	<unicode hex="0059"/>
	<outline>
		<contour>
			<point x="287" y="254" type="line"/>
			<point x="529" y="578" type="line" smooth="yes"/>
			<point x="537" y="589"/>
			<point x="541" y="599"/>
			<point x="541" y="611" type="curve" smooth="yes"/>
			<point x="541" y="623"/>
			<point x="535" y="634"/>
			<point x="524" y="642" type="curve" smooth="yes"/>
			<point x="512" y="653"/>
			<point x="494" y="653"/>
			<point x="484" y="653" type="curve"/>
			<point x="473" y="650"/>
			<point x="458" y="642"/>
			<point x="451" y="632" type="curve" smooth="yes"/>
			<point x="243" y="350" type="line"/>
		</contour>
		<contour>
			<point x="234" y="-2" type="curve" smooth="yes"/>
			<point x="268" y="-2"/>
			<point x="282" y="19"/>
			<point x="286" y="40" type="curve" smooth="yes"/>
			<point x="343" y="371" type="line"/>
			<point x="242" y="371" type="line"/>
			<point x="186" y="49" type="line" smooth="yes"/>
			<point x="181" y="21"/>
			<point x="202" y="-2"/>
		</contour>
		<contour>
			<point x="258" y="266" type="line"/>
			<point x="328" y="340" type="line"/>
			<point x="220" y="621" type="line" smooth="yes"/>
			<point x="216" y="632"/>
			<point x="207" y="642"/>
			<point x="194" y="648" type="curve" smooth="yes"/>
			<point x="185" y="653"/>
			<point x="167" y="654"/>
			<point x="154" y="649" type="curve" smooth="yes"/>
			<point x="139" y="643"/>
			<point x="128" y="632"/>
			<point x="125" y="619" type="curve" smooth="yes"/>
			<point x="123" y="609"/>
			<point x="127" y="599"/>
			<point x="131" y="588" type="curve" smooth="yes"/>
		</contour>
	</outline>
</glyph>
<glyph name="Z" format="2">
	<advance width="568"/>
	<unicode hex="005A"/>
	<outline>
		<contour>
			<point x="82" y="0" type="curve" smooth="yes"/>
			<point x="98" y="0"/>
			<point x="113" y="10"/>
			<point x="118" y="17" type="curve" smooth="yes"/>
			<point x="531" y="577" type="line" smooth="yes"/>
			<point x="545" y="595"/>
			<point x="547" y="614"/>
			<point x="539" y="629" type="curve" smooth="yes"/>
			<point x="531" y="644"/>
			<point x="514" y="653"/>
			<point x="490" y="653" type="curve" smooth="yes"/>
			<point x="476" y="653"/>
			<point x="457" y="644"/>
			<point x="449" y="633" type="curve" smooth="yes"/>
			<point x="33" y="70" type="line" smooth="yes"/>
			<point x="23" y="57"/>
			<point x="21" y="39"/>
			<point x="29" y="23" type="curve" smooth="yes"/>
			<point x="35" y="11"/>
			<point x="53" y="0"/>
		</contour>
		<contour>
			<point x="79" y="0" type="line"/>
			<point x="392" y="0" type="line" smooth="yes"/>
			<point x="424" y="0"/>
			<point x="442" y="19"/>
			<point x="442" y="43" type="curve" smooth="yes"/>
			<point x="442" y="69"/>
			<point x="422" y="90"/>
			<point x="392" y="90" type="curve" smooth="yes"/>
			<point x="149" y="90" type="line"/>
		</contour>
		<contour>
			<point x="427" y="563" type="line"/>
			<point x="492" y="653" type="line"/>
			<point x="176" y="653" type="line" smooth="yes"/>
			<point x="146" y="653"/>
			<point x="126" y="633"/>
			<point x="126" y="607" type="curve" smooth="yes"/>
			<point x="126" y="583"/>
			<point x="144" y="563"/>
			<point x="176" y="563" type="curve" smooth="yes"/>
		</contour>
	</outline>
</glyph>
<glyph name="backslash" format="2">
	<advance width="431"/>
	<unicode hex="005C"/>
	<outline>
		<contour>
			<point x="390" y="4" type="curve" smooth="yes"/>
			<point x="411" y="13"/>
			<point x="423" y="41"/>
			<point x="411" y="69" type="curve" smooth="yes"/>
			<point x="175" y="614" type="line" smooth="yes"/>
			<point x="160" y="648"/>
			<point x="129" y="655"/>
			<point x="104" y="646" type="curve" smooth="yes"/>
			<point x="82" y="638"/>
			<point x="68" y="608"/>
			<point x="83" y="574" type="curve" smooth="yes"/>
			<point x="318" y="32" type="line" smooth="yes"/>
			<point x="331" y="1"/>
			<point x="365" y="-6"/>
		</contour>
	</outline>
</glyph>
<glyph name="bracketright" format="2">
	<advance width="397"/>
	<unicode hex="005D"/>
	<outline>
		<contour>
			<point x="126" y="-300" type="curve" smooth="yes"/>
			<point x="157" y="-300"/>
			<point x="176" y="-287"/>
			<point x="181" y="-259" type="curve" smooth="yes"/>
			<point x="333" y="601" type="line" smooth="yes"/>
			<point x="338" y="629"/>
			<point x="318" y="650"/>
			<point x="284" y="650" type="curve" smooth="yes"/>
			<point x="250" y="650"/>
			<point x="237" y="632"/>
			<point x="233" y="610" type="curve" smooth="yes"/>
			<point x="82" y="-246" type="line" smooth="yes"/>
			<point x="74" y="-291"/>
			<point x="99" y="-300"/>
		</contour>
		<contour>
			<point x="-4" y="-300" type="curve" smooth="yes"/>
			<point x="127" y="-300" type="line"/>
			<point x="99" y="-215" type="line"/>
			<point x="-4" y="-215" type="line" smooth="yes"/>
			<point x="-30" y="-215"/>
			<point x="-51" y="-233"/>
			<point x="-55" y="-257" type="curve" smooth="yes"/>
			<point x="-59" y="-281"/>
			<point x="-38" y="-300"/>
		</contour>
		<contour>
			<point x="149" y="565" type="curve" smooth="yes"/>
			<point x="236" y="565" type="line"/>
			<point x="285" y="650" type="line"/>
			<point x="149" y="650" type="line" smooth="yes"/>
			<point x="118" y="650"/>
			<point x="102" y="634"/>
			<point x="97" y="607" type="curve" smooth="yes"/>
			<point x="93" y="583"/>
			<point x="118" y="565"/>
		</contour>
	</outline>
</glyph>
<glyph name="asciicircum" format="2">
	<advance width="547"/>
	<unicode hex="005E"/>
	<outline>
		<contour>
			<point x="355" y="569" type="line" smooth="yes"/>
			<point x="381" y="590"/>
			<point x="379" y="617"/>
			<point x="361" y="635" type="curve" smooth="yes"/>
			<point x="344" y="653"/>
			<point x="310" y="657"/>
			<point x="287" y="638" type="curve" smooth="yes"/>
			<point x="154" y="527" type="line" smooth="yes"/>
			<point x="130" y="507"/>
			<point x="134" y="481"/>
			<point x="147" y="464" type="curve" smooth="yes"/>
			<point x="165" y="442"/>
			<point x="200" y="439"/>
			<point x="224" y="459" type="curve" smooth="yes"/>
		</contour>
		<contour>
			<point x="361" y="635" type="line"/>
			<point x="286" y="573" type="line"/>
			<point x="378" y="464" type="line" smooth="yes"/>
			<point x="397" y="441"/>
			<point x="432" y="443"/>
			<point x="450" y="460" type="curve" smooth="yes"/>
			<point x="469" y="477"/>
			<point x="473" y="502"/>
			<point x="454" y="525" type="curve" smooth="yes"/>
		</contour>
	</outline>
</glyph>
<glyph name="underscore" format="2">
	<advance width="610"/>
	<unicode hex="005F"/>
	<outline>
		<contour>
			<point x="89" y="-99" type="curve" smooth="yes"/>
			<point x="378" y="-99" type="line" smooth="yes"/>
			<point x="409" y="-99"/>
			<point x="430" y="-79"/>
			<point x="430" y="-54" type="curve" smooth="yes"/>
			<point x="430" y="-30"/>
			<point x="409" y="-10"/>
			<point x="378" y="-10" type="curve" smooth="yes"/>
			<point x="89" y="-10" type="line" smooth="yes"/>
			<point x="57" y="-10"/>
			<point x="37" y="-30"/>
			<point x="37" y="-55" type="curve" smooth="yes"/>
			<point x="37" y="-79"/>
			<point x="59" y="-99"/>
		</contour>
	</outline>
</glyph>
<glyph name="a" format="2">
  <advance width="393"/>
  <unicode hex="0061"/>
  <outline>
    <contour>
      <point x="107" y="-4" type="curve" smooth="yes"/>
      <point x="152" y="-4"/>
      <point x="196" y="39"/>
      <point x="240" y="123" type="curve"/>
      <point x="246" y="253" type="line"/>
      <point x="202" y="142"/>
      <point x="155" y="86"/>
      <point x="134" y="86" type="curve" smooth="yes"/>
      <point x="118" y="86"/>
      <point x="111" y="109"/>
      <point x="117" y="147" type="curve" smooth="yes"/>
      <point x="129" y="217"/>
      <point x="182" y="260"/>
      <point x="257" y="260" type="curve" smooth="yes"/>
      <point x="266" y="260" type="line"/>
      <point x="278" y="350" type="line"/>
      <point x="254" y="350" type="line" smooth="yes"/>
      <point x="129" y="350"/>
      <point x="38" y="272"/>
      <point x="16" y="147" type="curve" smooth="yes"/>
      <point x="-1" y="54"/>
      <point x="34" y="-4"/>
    </contour>
    <contour>
      <point x="253" y="0" type="curve" smooth="yes"/>
      <point x="289" y="0"/>
      <point x="301" y="22"/>
      <point x="304" y="37" type="curve" smooth="yes"/>
      <point x="349" y="295" type="line" smooth="yes"/>
      <point x="355" y="328"/>
      <point x="343" y="350"/>
      <point x="311" y="350" type="curve" smooth="yes"/>
      <point x="263" y="350" type="line"/>
      <point x="209" y="44" type="line" smooth="yes"/>
      <point x="205" y="21"/>
      <point x="221" y="0"/>
    </contour>
  </outline>
</glyph>
<glyph name="b" format="2">
  <advance width="448"/>
  <unicode hex="0062"/>
  <outline>
    <contour>
      <point x="164.0" y="-4.0" type="curve" smooth="yes"/>
      <point x="267.0" y="-4.0"/>
      <point x="343" y="81"/>
      <point x="343" y="196" type="curve" smooth="yes"/>
      <point x="343" y="215"/>
      <point x="333" y="249"/>
      <point x="316" y="286" type="curve"/>
      <point x="293" y="264" type="line"/>
      <point x="368" y="242" type="line" smooth="yes"/>
      <point x="408" y="230"/>
      <point x="438.0" y="255"/>
      <point x="438.0" y="296" type="curve" smooth="yes"/>
      <point x="438.0" y="319"/>
      <point x="420" y="334"/>
      <point x="396" y="338" type="curve" smooth="yes"/>
      <point x="289" y="356" type="line" smooth="yes"/>
      <point x="234" y="365"/>
      <point x="224" y="327"/>
      <point x="233" y="305" type="curve" smooth="yes"/>
      <point x="244" y="277"/>
      <point x="251" y="250"/>
      <point x="251" y="233" type="curve" smooth="yes"/>
      <point x="251" y="147"/>
      <point x="220.0" y="83.0"/>
      <point x="178.0" y="83.0" type="curve" smooth="yes"/>
      <point x="146.0" y="83.0"/>
      <point x="133" y="116"/>
      <point x="142" y="170" type="curve" smooth="yes"/>
      <point x="221" y="619" type="line" smooth="yes"/>
      <point x="227" y="654"/>
      <point x="206" y="675"/>
      <point x="177" y="675" type="curve" smooth="yes"/>
      <point x="152" y="675"/>
      <point x="126" y="656"/>
      <point x="121" y="627" type="curve" smooth="yes"/>
      <point x="42" y="178" type="line" smooth="yes"/>
      <point x="22" y="65"/>
      <point x="69.0" y="-4.0"/>
    </contour>
  </outline>
</glyph>
<glyph name="c" format="2">
	<advance width="324"/>
	<unicode hex="0063"/>
	<outline>
		<contour>
			<point x="270" y="121" type="curve" smooth="yes"/>
			<point x="276" y="132"/>
			<point x="275" y="159"/>
			<point x="249" y="172" type="curve" smooth="yes"/>
			<point x="223" y="185"/>
			<point x="197" y="179"/>
			<point x="189" y="164" type="curve" smooth="yes"/>
			<point x="167" y="122"/>
			<point x="137" y="83"/>
			<point x="120" y="83" type="curve" smooth="yes"/>
			<point x="106" y="83"/>
			<point x="97" y="99"/>
			<point x="99" y="118" type="curve" smooth="yes"/>
			<point x="104" y="164"/>
			<point x="114" y="264"/>
			<point x="173" y="264" type="curve" smooth="yes"/>
			<point x="184" y="264"/>
			<point x="224" y="264"/>
			<point x="241" y="257" type="curve" smooth="yes"/>
			<point x="264" y="248"/>
			<point x="286" y="257"/>
			<point x="297" y="280" type="curve" smooth="yes"/>
			<point x="313" y="314"/>
			<point x="287" y="332"/>
			<point x="274" y="337" type="curve" smooth="yes"/>
			<point x="252" y="346"/>
			<point x="226" y="350"/>
			<point x="180" y="350" type="curve" smooth="yes"/>
			<point x="50" y="350"/>
			<point x="22" y="233"/>
			<point x="10" y="120" type="curve" smooth="yes"/>
			<point x="-1" y="24"/>
			<point x="61" y="-4"/>
			<point x="110" y="-4" type="curve" smooth="yes"/>
			<point x="178" y="-4"/>
			<point x="235" y="56"/>
		</contour>
	</outline>
</glyph>
<glyph name="d" format="2">
  <advance width="409"/>
  <unicode hex="0064"/>
  <outline>
    <contour>
      <point x="252" y="0" type="curve" smooth="yes"/>
      <point x="274" y="-2"/>
      <point x="300" y="12"/>
      <point x="305" y="40" type="curve" smooth="yes"/>
      <point x="404" y="595" type="line" smooth="yes"/>
      <point x="410" y="627"/>
      <point x="389" y="648"/>
      <point x="361" y="650" type="curve" smooth="yes"/>
      <point x="339" y="652"/>
      <point x="316" y="642"/>
      <point x="311" y="614" type="curve" smooth="yes"/>
      <point x="210" y="53" type="line" smooth="yes"/>
      <point x="204" y="18"/>
      <point x="229" y="2"/>
    </contour>
    <contour>
      <point x="107" y="-4" type="curve" smooth="yes"/>
      <point x="152" y="-4"/>
      <point x="196" y="39"/>
      <point x="240" y="123" type="curve"/>
      <point x="246" y="253" type="line"/>
      <point x="202" y="142"/>
      <point x="155" y="86"/>
      <point x="134" y="86" type="curve" smooth="yes"/>
      <point x="118" y="86"/>
      <point x="111" y="109"/>
      <point x="117" y="147" type="curve" smooth="yes"/>
      <point x="129" y="217"/>
      <point x="182" y="260"/>
      <point x="257" y="260" type="curve" smooth="yes"/>
      <point x="266" y="260" type="line"/>
      <point x="278" y="350" type="line"/>
      <point x="254" y="350" type="line" smooth="yes"/>
      <point x="129" y="350"/>
      <point x="38" y="272"/>
      <point x="16" y="147" type="curve" smooth="yes"/>
      <point x="-1" y="54"/>
      <point x="34" y="-4"/>
    </contour>
  </outline>
</glyph>
<glyph name="e" format="2">
  <advance width="343"/>
  <unicode hex="0065"/>
  <outline>
    <contour>
      <point x="130" y="-4" type="curve" smooth="yes"/>
      <point x="182" y="-4"/>
      <point x="233" y="19"/>
      <point x="265" y="58" type="curve" smooth="yes"/>
      <point x="291" y="90"/>
      <point x="279" y="117"/>
      <point x="264" y="128" type="curve" smooth="yes"/>
      <point x="244" y="142"/>
      <point x="218" y="135"/>
      <point x="197" y="110" type="curve" smooth="yes"/>
      <point x="181" y="91"/>
      <point x="158" y="81"/>
      <point x="137" y="81" type="curve" smooth="yes"/>
      <point x="122" y="81"/>
      <point x="114" y="93"/>
      <point x="114" y="118" type="curve" smooth="yes"/>
      <point x="114" y="212"/>
      <point x="156" y="282"/>
      <point x="212" y="282" type="curve" smooth="yes"/>
      <point x="218" y="282"/>
      <point x="221" y="279"/>
      <point x="221" y="273" type="curve" smooth="yes"/>
      <point x="221" y="260"/>
      <point x="201" y="240"/>
      <point x="163" y="217" type="curve" smooth="yes"/>
      <point x="136" y="201"/>
      <point x="90" y="176"/>
      <point x="72" y="167" type="curve"/>
      <point x="59" y="88" type="line"/>
      <point x="118" y="115"/>
      <point x="174" y="143"/>
      <point x="206" y="162" type="curve" smooth="yes"/>
      <point x="276" y="201"/>
      <point x="311" y="242"/>
      <point x="311" y="284" type="curve" smooth="yes"/>
      <point x="311" y="333"/>
      <point x="279" y="358"/>
      <point x="215" y="358" type="curve" smooth="yes"/>
      <point x="110" y="358"/>
      <point x="15" y="244"/>
      <point x="15" y="117" type="curve" smooth="yes"/>
      <point x="15" y="36"/>
      <point x="54" y="-4"/>
    </contour>
  </outline>
</glyph>
<glyph name="f" format="2">
  <advance width="279"/>
  <unicode hex="0066"/>
  <outline>
    <contour>
      <point x="38" y="-299" type="curve" smooth="yes"/>
      <point x="65" y="-299"/>
      <point x="87" y="-279"/>
      <point x="91" y="-255" type="curve" smooth="yes"/>
      <point x="216" y="504" type="line" smooth="yes"/>
      <point x="222" y="542"/>
      <point x="245" y="559"/>
      <point x="263" y="559" type="curve" smooth="yes"/>
      <point x="283" y="559"/>
      <point x="297" y="551"/>
      <point x="305" y="546" type="curve" smooth="yes"/>
      <point x="317" y="538"/>
      <point x="342" y="540"/>
      <point x="358" y="567" type="curve" smooth="yes"/>
      <point x="372" y="592"/>
      <point x="366" y="612"/>
      <point x="348" y="624" type="curve" smooth="yes"/>
      <point x="322" y="641"/>
      <point x="296" y="650"/>
      <point x="263" y="650" type="curve" smooth="yes"/>
      <point x="199" y="650"/>
      <point x="134" y="622"/>
      <point x="118" y="527" type="curve" smooth="yes"/>
      <point x="-8" y="-241" type="line" smooth="yes"/>
      <point x="-12" y="-264"/>
      <point x="0" y="-299"/>
    </contour>
    <contour>
      <point x="48" y="265" type="curve" smooth="yes"/>
      <point x="231" y="265" type="line" smooth="yes"/>
      <point x="261" y="265"/>
      <point x="278" y="281"/>
      <point x="278" y="307" type="curve" smooth="yes"/>
      <point x="278" y="331"/>
      <point x="258" y="350"/>
      <point x="226" y="350" type="curve" smooth="yes"/>
      <point x="43" y="350" type="line" smooth="yes"/>
      <point x="12" y="350"/>
      <point x="-3" y="331"/>
      <point x="-3" y="307" type="curve" smooth="yes"/>
      <point x="-3" y="283"/>
      <point x="17" y="265"/>
    </contour>
  </outline>
</glyph>
<glyph name="g" format="2">
  <advance width="412"/>
  <unicode hex="0067"/>
  <outline>
    <contour>
      <point x="117" y="-4.0" type="curve" smooth="yes"/>
      <point x="162" y="-4.0"/>
      <point x="206" y="39"/>
      <point x="250" y="123" type="curve"/>
      <point x="256" y="253" type="line"/>
      <point x="212" y="142"/>
      <point x="165" y="86"/>
      <point x="144" y="86.0" type="curve" smooth="yes"/>
      <point x="128" y="86.0"/>
      <point x="121" y="109"/>
      <point x="127" y="147" type="curve" smooth="yes"/>
      <point x="139" y="217"/>
      <point x="192" y="260"/>
      <point x="267" y="260" type="curve" smooth="yes"/>
      <point x="276" y="260" type="line"/>
      <point x="288" y="350" type="line"/>
      <point x="264" y="350" type="line" smooth="yes"/>
      <point x="139" y="350"/>
      <point x="48" y="272"/>
      <point x="26" y="147" type="curve" smooth="yes"/>
      <point x="9" y="54"/>
      <point x="44" y="-4.0"/>
    </contour>
    <contour>
      <point x="92" y="-300" type="curve" smooth="yes"/>
      <point x="202" y="-300"/>
      <point x="273" y="-215"/>
      <point x="303" y="-47" type="curve" smooth="yes"/>
      <point x="365" y="302" type="line" smooth="yes"/>
      <point x="370" y="332"/>
      <point x="354.0" y="350.0"/>
      <point x="322" y="350" type="curve" smooth="yes"/>
      <point x="273" y="350" type="line"/>
      <point x="203" y="-40" type="line" smooth="yes"/>
      <point x="179" y="-173"/>
      <point x="124" y="-203"/>
      <point x="85" y="-203" type="curve" smooth="yes"/>
      <point x="66" y="-203"/>
      <point x="52" y="-196"/>
      <point x="44" y="-191" type="curve" smooth="yes"/>
      <point x="23" y="-178"/>
      <point x="-3" y="-183"/>
      <point x="-16" y="-204" type="curve" smooth="yes"/>
      <point x="-32" y="-228"/>
      <point x="-28" y="-256"/>
      <point x="-7" y="-271" type="curve" smooth="yes"/>
      <point x="8" y="-282"/>
      <point x="44" y="-300"/>
    </contour>
  </outline>
</glyph>
<glyph name="h" format="2">
  <advance width="413"/>
  <unicode hex="0068"/>
  <outline>
    <contour>
      <point x="59" y="0" type="curve" smooth="yes"/>
      <point x="96" y="0"/>
      <point x="115" y="22"/>
      <point x="118" y="37" type="curve" smooth="yes"/>
      <point x="217" y="601" type="line" smooth="yes"/>
      <point x="222" y="631"/>
      <point x="206" y="649"/>
      <point x="174" y="649" type="curve" smooth="yes"/>
      <point x="132" y="649"/>
      <point x="119" y="619"/>
      <point x="117" y="607" type="curve" smooth="yes"/>
      <point x="18" y="44" type="line" smooth="yes"/>
      <point x="14" y="20"/>
      <point x="25" y="0"/>
    </contour>
    <contour>
      <point x="274" y="0" type="curve" smooth="yes"/>
      <point x="310" y="0"/>
      <point x="326" y="19"/>
      <point x="329" y="34" type="curve" smooth="yes"/>
      <point x="357" y="193" type="line" smooth="yes"/>
      <point x="376" y="302"/>
      <point x="347" y="358"/>
      <point x="271" y="358" type="curve" smooth="yes"/>
      <point x="225" y="358"/>
      <point x="187" y="321"/>
      <point x="149" y="268" type="curve"/>
      <point x="128" y="136" type="line"/>
      <point x="174" y="218"/>
      <point x="211" y="272"/>
      <point x="237" y="272" type="curve" smooth="yes"/>
      <point x="257" y="272"/>
      <point x="265" y="250"/>
      <point x="258" y="208" type="curve" smooth="yes"/>
      <point x="230" y="49" type="line" smooth="yes"/>
      <point x="226" y="25"/>
      <point x="242" y="0"/>
    </contour>
  </outline>
</glyph>
<glyph name="i" format="2">
	<advance width="203"/>
	<unicode hex="0069"/>
	<outline>
		<contour>
			<point x="49" y="0" type="curve" smooth="yes"/>
			<point x="71" y="0"/>
			<point x="100" y="10"/>
			<point x="105" y="37" type="curve" smooth="yes"/>
			<point x="150" y="294" type="line" smooth="yes"/>
			<point x="156" y="327"/>
			<point x="129" y="350"/>
			<point x="104" y="350" type="curve" smooth="yes"/>
			<point x="80" y="350"/>
			<point x="55" y="332"/>
			<point x="50" y="305" type="curve" smooth="yes"/>
			<point x="5" y="49" type="line" smooth="yes"/>
			<point x="0" y="19"/>
			<point x="23" y="0"/>
		</contour>
		<contour>
			<point x="132" y="417" type="curve" smooth="yes"/>
			<point x="159" y="417"/>
			<point x="182" y="439"/>
			<point x="182" y="466" type="curve" smooth="yes"/>
			<point x="182" y="495"/>
			<point x="158" y="515"/>
			<point x="132" y="515" type="curve" smooth="yes"/>
			<point x="105" y="515"/>
			<point x="84" y="493"/>
			<point x="84" y="466" type="curve" smooth="yes"/>
			<point x="84" y="439"/>
			<point x="106" y="417"/>
		</contour>
	</outline>
</glyph>
<glyph name="j" format="2">
  <advance width="212"/>
  <unicode hex="006A"/>
  <outline>
    <contour>
      <point x="142" y="413" type="curve" smooth="yes"/>
      <point x="171" y="413"/>
      <point x="196" y="437"/>
      <point x="196" y="466" type="curve" smooth="yes"/>
      <point x="196" y="497"/>
      <point x="170" y="519"/>
      <point x="142" y="519" type="curve" smooth="yes"/>
      <point x="113" y="519"/>
      <point x="90" y="495"/>
      <point x="90" y="466" type="curve" smooth="yes"/>
      <point x="90" y="437"/>
      <point x="114" y="413"/>
    </contour>
    <contour>
      <point x="-108" y="-300" type="curve" smooth="yes"/>
      <point x="2" y="-300"/>
      <point x="73" y="-215"/>
      <point x="103" y="-47" type="curve" smooth="yes"/>
      <point x="165" y="302" type="line" smooth="yes"/>
      <point x="170" y="332"/>
      <point x="154" y="350"/>
      <point x="122" y="350" type="curve" smooth="yes"/>
      <point x="80" y="350"/>
      <point x="67" y="320"/>
      <point x="65" y="308" type="curve" smooth="yes"/>
      <point x="3" y="-40" type="line" smooth="yes"/>
      <point x="-21" y="-173"/>
      <point x="-76" y="-203"/>
      <point x="-115" y="-203" type="curve" smooth="yes"/>
      <point x="-134" y="-203"/>
      <point x="-148" y="-196"/>
      <point x="-156" y="-191" type="curve" smooth="yes"/>
      <point x="-177" y="-178"/>
      <point x="-203" y="-183"/>
      <point x="-216" y="-204" type="curve" smooth="yes"/>
      <point x="-232" y="-228"/>
      <point x="-228" y="-256"/>
      <point x="-207" y="-271" type="curve" smooth="yes"/>
      <point x="-192" y="-282"/>
      <point x="-156" y="-300"/>
    </contour>
  </outline>
</glyph>
<glyph name="k" format="2">
  <advance width="423"/>
  <unicode hex="006B"/>
  <outline>
    <contour>
      <point x="62" y="0" type="curve" smooth="yes"/>
      <point x="89" y="0"/>
      <point x="112" y="11"/>
      <point x="117" y="40" type="curve" smooth="yes"/>
      <point x="215" y="596" type="line" smooth="yes"/>
      <point x="221" y="630"/>
      <point x="198" y="650"/>
      <point x="168" y="650" type="curve" smooth="yes"/>
      <point x="145" y="650"/>
      <point x="122" y="635"/>
      <point x="117" y="605" type="curve" smooth="yes"/>
      <point x="19" y="48" type="line" smooth="yes"/>
      <point x="14" y="19"/>
      <point x="35" y="0"/>
    </contour>
    <contour>
      <point x="323" y="0" type="curve" smooth="yes"/>
      <point x="347.0430377003132" y="0.0"/>
      <point x="369.0" y="24.159673382379793"/>
      <point x="369" y="42" type="curve" smooth="yes"/>
      <point x="369" y="51"/>
      <point x="366" y="59"/>
      <point x="359" y="69" type="curve" smooth="yes"/>
      <point x="293" y="166" type="line"/>
      <point x="323" y="184"/>
      <point x="375" y="227"/>
      <point x="375" y="291" type="curve" smooth="yes"/>
      <point x="375" y="329"/>
      <point x="336" y="358"/>
      <point x="293" y="358" type="curve" smooth="yes"/>
      <point x="225" y="358"/>
      <point x="187" y="321"/>
      <point x="149" y="268" type="curve"/>
      <point x="128" y="136" type="line"/>
      <point x="174" y="218"/>
      <point x="211" y="273"/>
      <point x="264" y="273" type="curve" smooth="yes"/>
      <point x="270" y="273"/>
      <point x="273" y="270"/>
      <point x="273" y="265" type="curve" smooth="yes"/>
      <point x="273" y="250"/>
      <point x="249" y="219"/>
      <point x="203" y="193" type="curve" smooth="yes"/>
      <point x="195" y="188"/>
      <point x="188" y="179"/>
      <point x="188" y="166" type="curve" smooth="yes"/>
      <point x="188" y="151"/>
      <point x="201" y="134"/>
      <point x="213" y="116" type="curve" smooth="yes"/>
      <point x="276" y="25" type="line" smooth="yes"/>
      <point x="287" y="9"/>
      <point x="305" y="0"/>
    </contour>
  </outline>
</glyph>
<glyph name="l" format="2">
  <advance width="210"/>
  <unicode hex="006C"/>
  <outline>
    <contour>
      <point x="65" y="0" type="curve" smooth="yes"/>
      <point x="87" y="0"/>
      <point x="113" y="15"/>
      <point x="118" y="44" type="curve" smooth="yes"/>
      <point x="216" y="599" type="line" smooth="yes"/>
      <point x="222" y="631"/>
      <point x="195" y="650"/>
      <point x="167" y="650" type="curve" smooth="yes"/>
      <point x="145" y="650"/>
      <point x="123" y="640"/>
      <point x="118" y="612" type="curve" smooth="yes"/>
      <point x="19" y="50" type="line" smooth="yes"/>
      <point x="13" y="15"/>
      <point x="42" y="0"/>
    </contour>
  </outline>
</glyph>
<glyph name="m" format="2">
  <advance width="612"/>
  <unicode hex="006D"/>
  <outline>
    <contour>
      <point x="49" y="0" type="curve" smooth="yes"/>
      <point x="86" y="0"/>
      <point x="105" y="22"/>
      <point x="108" y="37" type="curve" smooth="yes"/>
      <point x="155" y="302" type="line" smooth="yes"/>
      <point x="160" y="332"/>
      <point x="144" y="350"/>
      <point x="112" y="350" type="curve" smooth="yes"/>
      <point x="70" y="350"/>
      <point x="57" y="320"/>
      <point x="55" y="308" type="curve" smooth="yes"/>
      <point x="8" y="44" type="line" smooth="yes"/>
      <point x="4" y="20"/>
      <point x="15" y="0"/>
    </contour>
    <contour>
      <point x="258" y="0" type="curve" smooth="yes"/>
      <point x="294" y="0"/>
      <point x="310" y="19"/>
      <point x="313" y="34" type="curve" smooth="yes"/>
      <point x="341" y="193" type="line" smooth="yes"/>
      <point x="360" y="302"/>
      <point x="331" y="358"/>
      <point x="255" y="358" type="curve" smooth="yes"/>
      <point x="209" y="358"/>
      <point x="177" y="321"/>
      <point x="139" y="268" type="curve"/>
      <point x="118" y="136" type="line"/>
      <point x="164" y="218"/>
      <point x="195" y="272"/>
      <point x="221" y="272" type="curve" smooth="yes"/>
      <point x="241" y="272"/>
      <point x="249" y="250"/>
      <point x="242" y="208" type="curve" smooth="yes"/>
      <point x="214" y="49" type="line" smooth="yes"/>
      <point x="210" y="25"/>
      <point x="226" y="0"/>
    </contour>
    <contour>
      <point x="463" y="0" type="curve" smooth="yes"/>
      <point x="499" y="0"/>
      <point x="515" y="19"/>
      <point x="518" y="34" type="curve" smooth="yes"/>
      <point x="546" y="193" type="line" smooth="yes"/>
      <point x="565" y="302"/>
      <point x="536" y="358"/>
      <point x="460" y="358" type="curve" smooth="yes"/>
      <point x="414" y="358"/>
      <point x="382" y="321"/>
      <point x="344" y="268" type="curve"/>
      <point x="323" y="136" type="line"/>
      <point x="369" y="218"/>
      <point x="400" y="272"/>
      <point x="426" y="272" type="curve" smooth="yes"/>
      <point x="446" y="272"/>
      <point x="454" y="250"/>
      <point x="447" y="208" type="curve" smooth="yes"/>
      <point x="419" y="49" type="line" smooth="yes"/>
      <point x="415" y="25"/>
      <point x="431" y="0"/>
    </contour>
  </outline>
</glyph>
<glyph name="n" format="2">
  <advance width="403"/>
  <unicode hex="006E"/>
  <outline>
    <contour>
      <point x="49" y="0" type="curve" smooth="yes"/>
      <point x="86" y="0"/>
      <point x="105" y="22"/>
      <point x="108" y="37" type="curve" smooth="yes"/>
      <point x="155" y="302" type="line" smooth="yes"/>
      <point x="160" y="332"/>
      <point x="144" y="350"/>
      <point x="112" y="350" type="curve" smooth="yes"/>
      <point x="70" y="350"/>
      <point x="57" y="320"/>
      <point x="55" y="308" type="curve" smooth="yes"/>
      <point x="8" y="44" type="line" smooth="yes"/>
      <point x="4" y="20"/>
      <point x="15" y="0"/>
    </contour>
    <contour>
      <point x="264" y="0" type="curve" smooth="yes"/>
      <point x="300" y="0"/>
      <point x="316" y="19"/>
      <point x="319" y="34" type="curve" smooth="yes"/>
      <point x="347" y="193" type="line" smooth="yes"/>
      <point x="366" y="302"/>
      <point x="337" y="358"/>
      <point x="261" y="358" type="curve" smooth="yes"/>
      <point x="215" y="358"/>
      <point x="177" y="321"/>
      <point x="139" y="268" type="curve"/>
      <point x="118" y="136" type="line"/>
      <point x="164" y="218"/>
      <point x="201" y="272"/>
      <point x="227" y="272" type="curve" smooth="yes"/>
      <point x="247" y="272"/>
      <point x="255" y="250"/>
      <point x="248" y="208" type="curve" smooth="yes"/>
      <point x="220" y="49" type="line" smooth="yes"/>
      <point x="216" y="25"/>
      <point x="232" y="0"/>
    </contour>
  </outline>
</glyph>
<glyph name="o" format="2">
	<advance width="348"/>
	<unicode hex="006F"/>
	<outline>
		<contour>
			<point x="125" y="-4" type="curve" smooth="yes"/>
			<point x="233" y="-4"/>
			<point x="293" y="141"/>
			<point x="302" y="226" type="curve" smooth="yes"/>
			<point x="311" y="303"/>
			<point x="251" y="350"/>
			<point x="175" y="350" type="curve" smooth="yes"/>
			<point x="45" y="350"/>
			<point x="22" y="250"/>
			<point x="11" y="152" type="curve" smooth="yes"/>
			<point x="-1" y="41"/>
			<point x="62" y="-4"/>
		</contour>
		<contour>
			<point x="134" y="83" type="curve" smooth="yes"/>
			<point x="106" y="83"/>
			<point x="97" y="116"/>
			<point x="101" y="150" type="curve" smooth="yes"/>
			<point x="104" y="181"/>
			<point x="109" y="264"/>
			<point x="168" y="264" type="curve" smooth="yes"/>
			<point x="188" y="264"/>
			<point x="211" y="248"/>
			<point x="209" y="225" type="curve" smooth="yes"/>
			<point x="205" y="174"/>
			<point x="162" y="83"/>
		</contour>
	</outline>
</glyph>
<glyph name="p" format="2">
  <advance width="448"/>
  <unicode hex="0070"/>
  <outline>
    <contour>
      <point x="-4" y="-300" type="curve" smooth="yes"/>
      <point x="33" y="-300"/>
      <point x="52" y="-278"/>
      <point x="55" y="-263" type="curve" smooth="yes"/>
      <point x="155" y="302" type="line" smooth="yes"/>
      <point x="160" y="332"/>
      <point x="144" y="350"/>
      <point x="112" y="350" type="curve" smooth="yes"/>
      <point x="70" y="350"/>
      <point x="57" y="320"/>
      <point x="55" y="308" type="curve" smooth="yes"/>
      <point x="-45" y="-256" type="line" smooth="yes"/>
      <point x="-49" y="-280"/>
      <point x="-38" y="-300"/>
    </contour>
    <contour>
      <point x="264" y="0" type="curve" smooth="yes"/>
      <point x="300" y="0"/>
      <point x="316" y="19"/>
      <point x="319" y="34" type="curve" smooth="yes"/>
      <point x="347" y="193" type="line" smooth="yes"/>
      <point x="366" y="302"/>
      <point x="337" y="358"/>
      <point x="261" y="358" type="curve" smooth="yes"/>
      <point x="215" y="358"/>
      <point x="177" y="321"/>
      <point x="139" y="268" type="curve"/>
      <point x="118" y="136" type="line"/>
      <point x="164" y="218"/>
      <point x="201" y="272"/>
      <point x="227" y="272" type="curve" smooth="yes"/>
      <point x="247" y="272"/>
      <point x="255" y="250"/>
      <point x="248" y="208" type="curve" smooth="yes"/>
      <point x="220" y="49" type="line" smooth="yes"/>
      <point x="216" y="25"/>
      <point x="232" y="0"/>
    </contour>
    <contour>
      <point x="300" y="9" type="line"/>
      <point x="394" y="88" type="line" smooth="yes"/>
      <point x="409" y="100"/>
      <point x="420" y="114"/>
      <point x="422" y="127" type="curve" smooth="yes"/>
      <point x="426" y="152"/>
      <point x="406" y="171"/>
      <point x="381" y="172" type="curve" smooth="yes"/>
      <point x="368" y="173"/>
      <point x="352" y="168"/>
      <point x="336" y="155" type="curve" smooth="yes"/>
      <point x="320" y="142" type="line"/>
    </contour>
  </outline>
</glyph>
<glyph name="q" format="2">
	<advance width="428"/>
	<unicode hex="0071"/>
	<outline>
		<contour>
			<point x="215" y="-300" type="curve" smooth="yes"/>
			<point x="238" y="-300"/>
			<point x="263" y="-284"/>
			<point x="268" y="-256" type="curve" smooth="yes"/>
			<point x="367" y="306" type="line" smooth="yes"/>
			<point x="371" y="326"/>
			<point x="359" y="350"/>
			<point x="324" y="350" type="curve" smooth="yes"/>
			<point x="279" y="350" type="line"/>
			<point x="173" y="-248" type="line" smooth="yes"/>
			<point x="167" y="-280"/>
			<point x="188" y="-300"/>
		</contour>
		<contour>
			<point x="129" y="-4" type="curve" smooth="yes"/>
			<point x="189" y="-4"/>
			<point x="233" y="48"/>
			<point x="269" y="112" type="curve"/>
			<point x="291" y="320" type="line"/>
			<point x="232" y="189"/>
			<point x="179" y="86"/>
			<point x="150" y="86" type="curve" smooth="yes"/>
			<point x="122" y="86"/>
			<point x="107" y="101"/>
			<point x="115" y="147" type="curve" smooth="yes"/>
			<point x="123" y="193"/>
			<point x="139" y="260"/>
			<point x="273" y="260" type="curve" smooth="yes"/>
			<point x="285" y="260" type="line"/>
			<point x="294" y="350" type="line"/>
			<point x="270" y="350" type="line" smooth="yes"/>
			<point x="104" y="350"/>
			<point x="34" y="261"/>
			<point x="14" y="147" type="curve" smooth="yes"/>
			<point x="-4" y="47"/>
			<point x="62" y="-4"/>
		</contour>
		<contour>
			<point x="251" y="-286" type="line"/>
			<point x="345" y="-207" type="line" smooth="yes"/>
			<point x="360" y="-195"/>
			<point x="371" y="-181"/>
			<point x="373" y="-168" type="curve" smooth="yes"/>
			<point x="377" y="-143"/>
			<point x="357" y="-124"/>
			<point x="332" y="-123" type="curve" smooth="yes"/>
			<point x="319" y="-122"/>
			<point x="303" y="-127"/>
			<point x="287" y="-140" type="curve" smooth="yes"/>
			<point x="271" y="-153" type="line"/>
		</contour>
	</outline>
</glyph>
<glyph name="r" format="2">
  <advance width="358"/>
  <unicode hex="0072"/>
  <outline>
    <contour>
      <point x="55" y="0" type="curve" smooth="yes"/>
      <point x="78" y="0"/>
      <point x="104" y="14"/>
      <point x="109" y="41" type="curve" smooth="yes"/>
      <point x="154" y="297" type="line" smooth="yes"/>
      <point x="160" y="329"/>
      <point x="134" y="350"/>
      <point x="108" y="350" type="curve" smooth="yes"/>
      <point x="86" y="350"/>
      <point x="60" y="336"/>
      <point x="55" y="309" type="curve" smooth="yes"/>
      <point x="9" y="48" type="line" smooth="yes"/>
      <point x="4" y="18"/>
      <point x="29" y="0"/>
    </contour>
    <contour>
      <point x="92" y="78" type="line"/>
      <point x="155" y="213"/>
      <point x="198" y="264"/>
      <point x="212" y="264" type="curve" smooth="yes"/>
      <point x="229" y="264"/>
      <point x="248" y="244"/>
      <point x="276" y="244.0" type="curve" smooth="yes"/>
      <point x="292" y="244"/>
      <point x="322" y="259"/>
      <point x="340" y="269" type="curve" smooth="yes"/>
      <point x="356" y="278"/>
      <point x="382" y="288"/>
      <point x="382" y="318" type="curve" smooth="yes"/>
      <point x="382" y="361"/>
      <point x="335" y="364"/>
      <point x="315" y="350" type="curve" smooth="yes"/>
      <point x="308" y="345"/>
      <point x="292" y="333"/>
      <point x="279" y="333" type="curve" smooth="yes"/>
      <point x="260" y="333"/>
      <point x="263" y="358"/>
      <point x="230" y="358" type="curve" smooth="yes"/>
      <point x="193" y="358"/>
      <point x="139" y="275"/>
      <point x="108" y="203" type="curve"/>
    </contour>
  </outline>
</glyph>
<glyph name="s" format="2">
  <advance width="353"/>
  <unicode hex="0073"/>
  <outline>
    <contour>
      <point x="146" y="-4" type="curve" smooth="yes"/>
      <point x="221" y="-4"/>
      <point x="268" y="36"/>
      <point x="268" y="100" type="curve" smooth="yes"/>
      <point x="268" y="141"/>
      <point x="255" y="159"/>
      <point x="236" y="177" type="curve" smooth="yes"/>
      <point x="225" y="188"/>
      <point x="200" y="203"/>
      <point x="180" y="216" type="curve" smooth="yes"/>
      <point x="150" y="235"/>
      <point x="138" y="248"/>
      <point x="138" y="260" type="curve" smooth="yes"/>
      <point x="138" y="269"/>
      <point x="148" y="274"/>
      <point x="165" y="274" type="curve" smooth="yes"/>
      <point x="188" y="274"/>
      <point x="213" y="268"/>
      <point x="229" y="259" type="curve" smooth="yes"/>
      <point x="254" y="246"/>
      <point x="284" y="244"/>
      <point x="296" y="266" type="curve" smooth="yes"/>
      <point x="312" y="296"/>
      <point x="295" y="323"/>
      <point x="258" y="341" type="curve" smooth="yes"/>
      <point x="233" y="353"/>
      <point x="200" y="358"/>
      <point x="173" y="358" type="curve" smooth="yes"/>
      <point x="94" y="358"/>
      <point x="46" y="321"/>
      <point x="46" y="260" type="curve" smooth="yes"/>
      <point x="46" y="216"/>
      <point x="68" y="181"/>
      <point x="111" y="156" type="curve" smooth="yes"/>
      <point x="133" y="142"/>
      <point x="153" y="129"/>
      <point x="166" y="120" type="curve" smooth="yes"/>
      <point x="174" y="114"/>
      <point x="176" y="110"/>
      <point x="176" y="103" type="curve" smooth="yes"/>
      <point x="176" y="92"/>
      <point x="167" y="82"/>
      <point x="147" y="82" type="curve" smooth="yes"/>
      <point x="124" y="82"/>
      <point x="99" y="96"/>
      <point x="91" y="101" type="curve" smooth="yes"/>
      <point x="69" y="115"/>
      <point x="36" y="120"/>
      <point x="22" y="97" type="curve" smooth="yes"/>
      <point x="7" y="73"/>
      <point x="18" y="45"/>
      <point x="57" y="20" type="curve" smooth="yes"/>
      <point x="82" y="4"/>
      <point x="119" y="-4"/>
    </contour>
  </outline>
</glyph>
<glyph name="t" format="2">
  <advance width="298"/>
  <unicode hex="0074"/>
  <outline>
    <contour>
      <point x="98" y="0" type="curve" smooth="yes"/>
      <point x="123" y="0"/>
      <point x="145" y="9"/>
      <point x="150" y="35" type="curve" smooth="yes"/>
      <point x="236" y="523" type="line" smooth="yes"/>
      <point x="242" y="557"/>
      <point x="213" y="568"/>
      <point x="186" y="568" type="curve" smooth="yes"/>
      <point x="164" y="568"/>
      <point x="141" y="555"/>
      <point x="137" y="532" type="curve" smooth="yes"/>
      <point x="51" y="44" type="line" smooth="yes"/>
      <point x="45" y="12"/>
      <point x="72" y="0"/>
    </contour>
    <contour>
      <point x="47" y="265" type="curve" smooth="yes"/>
      <point x="257" y="265" type="line" smooth="yes"/>
      <point x="289" y="265"/>
      <point x="307" y="283"/>
      <point x="307" y="307" type="curve" smooth="yes"/>
      <point x="307" y="332"/>
      <point x="289" y="350"/>
      <point x="257" y="350" type="curve" smooth="yes"/>
      <point x="47" y="350" type="line" smooth="yes"/>
      <point x="15" y="350"/>
      <point x="-3" y="332"/>
      <point x="-3" y="307" type="curve" smooth="yes"/>
      <point x="-3" y="283"/>
      <point x="15" y="265"/>
    </contour>
  </outline>
</glyph>
<glyph name="u" format="2">
	<advance width="426"/>
	<unicode hex="0075"/>
	<outline>
		<contour>
			<point x="267" y="0" type="curve" smooth="yes"/>
			<point x="309" y="0"/>
			<point x="322" y="30"/>
			<point x="324" y="42" type="curve" smooth="yes"/>
			<point x="371" y="306" type="line" smooth="yes"/>
			<point x="375" y="330"/>
			<point x="364" y="350"/>
			<point x="330" y="350" type="curve" smooth="yes"/>
			<point x="293" y="350"/>
			<point x="274" y="328"/>
			<point x="271" y="313" type="curve" smooth="yes"/>
			<point x="224" y="48" type="line" smooth="yes"/>
			<point x="219" y="18"/>
			<point x="235" y="0"/>
		</contour>
		<contour>
			<point x="127" y="-4" type="curve" smooth="yes"/>
			<point x="181" y="-4"/>
			<point x="214" y="33"/>
			<point x="240" y="59" type="curve"/>
			<point x="261" y="231" type="line"/>
			<point x="223" y="173"/>
			<point x="162" y="82"/>
			<point x="135" y="82" type="curve" smooth="yes"/>
			<point x="111" y="82"/>
			<point x="106" y="112"/>
			<point x="111" y="142" type="curve" smooth="yes"/>
			<point x="139" y="301" type="line" smooth="yes"/>
			<point x="143" y="325"/>
			<point x="127" y="350"/>
			<point x="95" y="350" type="curve" smooth="yes"/>
			<point x="59" y="350"/>
			<point x="43" y="331"/>
			<point x="40" y="316" type="curve" smooth="yes"/>
			<point x="12" y="157" type="line" smooth="yes"/>
			<point x="-5" y="58"/>
			<point x="37" y="-4"/>
		</contour>
	</outline>
</glyph>
<glyph name="v" format="2">
  <advance width="454"/>
  <unicode hex="0076"/>
  <outline>
    <contour>
      <point x="91" y="-4" type="curve" smooth="yes"/>
      <point x="170" y="-4"/>
      <point x="279" y="101"/>
      <point x="350" y="241" type="curve" smooth="yes"/>
      <point x="353" y="247" type="line"/>
      <point x="391" y="239" type="line" smooth="yes"/>
      <point x="431" y="231"/>
      <point x="464" y="249"/>
      <point x="464" y="288" type="curve" smooth="yes"/>
      <point x="464" y="310"/>
      <point x="449" y="329"/>
      <point x="419" y="335" type="curve" smooth="yes"/>
      <point x="348" y="349"/>
      <point x="342" y="350"/>
      <point x="338" y="350" type="curve" smooth="yes"/>
      <point x="311" y="350"/>
      <point x="297" y="337"/>
      <point x="282" y="307" type="curve" smooth="yes"/>
      <point x="218" y="177"/>
      <point x="148" y="80"/>
      <point x="117" y="80" type="curve" smooth="yes"/>
      <point x="109" y="80"/>
      <point x="107" y="92"/>
      <point x="111" y="115" type="curve" smooth="yes"/>
      <point x="144" y="297" type="line" smooth="yes"/>
      <point x="150" y="330"/>
      <point x="127" y="350"/>
      <point x="100" y="350" type="curve" smooth="yes"/>
      <point x="78" y="350"/>
      <point x="49" y="334"/>
      <point x="44" y="307" type="curve" smooth="yes"/>
      <point x="10" y="115" type="line" smooth="yes"/>
      <point x="-3" y="36"/>
      <point x="25" y="-4"/>
    </contour>
  </outline>
</glyph>
<glyph name="w" format="2">
  <advance width="695"/>
  <unicode hex="0077"/>
  <outline>
    <contour>
      <point x="91" y="-4" type="curve" smooth="yes"/>
      <point x="147" y="-4"/>
      <point x="201" y="49"/>
      <point x="269" y="154" type="curve"/>
      <point x="257" y="159" type="line"/>
      <point x="251" y="115" type="line" smooth="yes"/>
      <point x="238" y="36"/>
      <point x="266" y="-4"/>
      <point x="332" y="-4" type="curve" smooth="yes"/>
      <point x="411" y="-4"/>
      <point x="520" y="101"/>
      <point x="591" y="241" type="curve" smooth="yes"/>
      <point x="594" y="247" type="line"/>
      <point x="632" y="239" type="line" smooth="yes"/>
      <point x="672" y="231"/>
      <point x="705" y="249"/>
      <point x="705" y="288" type="curve" smooth="yes"/>
      <point x="705" y="310"/>
      <point x="690" y="329"/>
      <point x="660" y="335" type="curve" smooth="yes"/>
      <point x="589" y="349"/>
      <point x="583" y="350"/>
      <point x="579" y="350" type="curve" smooth="yes"/>
      <point x="552" y="350"/>
      <point x="538" y="337"/>
      <point x="523" y="307" type="curve" smooth="yes"/>
      <point x="459" y="177"/>
      <point x="389" y="80"/>
      <point x="358" y="80" type="curve" smooth="yes"/>
      <point x="350" y="80"/>
      <point x="348" y="92"/>
      <point x="352" y="115" type="curve" smooth="yes"/>
      <point x="385" y="297" type="line" smooth="yes"/>
      <point x="391" y="330"/>
      <point x="368.0" y="350.0"/>
      <point x="338" y="350" type="curve" smooth="yes"/>
      <point x="311.0" y="350.0"/>
      <point x="297" y="337"/>
      <point x="282" y="307" type="curve" smooth="yes"/>
      <point x="218" y="177"/>
      <point x="148" y="80"/>
      <point x="117" y="80" type="curve" smooth="yes"/>
      <point x="109" y="80"/>
      <point x="107" y="92"/>
      <point x="111" y="115" type="curve" smooth="yes"/>
      <point x="144" y="297" type="line" smooth="yes"/>
      <point x="150" y="330"/>
      <point x="127" y="350"/>
      <point x="100" y="350" type="curve" smooth="yes"/>
      <point x="78" y="350"/>
      <point x="49" y="334"/>
      <point x="44" y="307" type="curve" smooth="yes"/>
      <point x="10" y="115" type="line" smooth="yes"/>
      <point x="-3" y="36"/>
      <point x="25" y="-4"/>
    </contour>
  </outline>
</glyph>
<glyph name="x" format="2">
	<advance width="428"/>
	<unicode hex="0078"/>
	<outline>
		<contour>
			<point x="380" y="118" type="curve" smooth="yes"/>
			<point x="386" y="129"/>
			<point x="391" y="156"/>
			<point x="365" y="169" type="curve" smooth="yes"/>
			<point x="339" y="182"/>
			<point x="313" y="176"/>
			<point x="305" y="161" type="curve" smooth="yes"/>
			<point x="283" y="119"/>
			<point x="263" y="87"/>
			<point x="246" y="87" type="curve" smooth="yes"/>
			<point x="232" y="87"/>
			<point x="220" y="103"/>
			<point x="222" y="122" type="curve" smooth="yes"/>
			<point x="227" y="168"/>
			<point x="240" y="268"/>
			<point x="299" y="268" type="curve" smooth="yes"/>
			<point x="310" y="268"/>
			<point x="317" y="267"/>
			<point x="337" y="263" type="curve" smooth="yes"/>
			<point x="354" y="260"/>
			<point x="375" y="261"/>
			<point x="386" y="284" type="curve" smooth="yes"/>
			<point x="402" y="318"/>
			<point x="376" y="336"/>
			<point x="363" y="341" type="curve" smooth="yes"/>
			<point x="341" y="350"/>
			<point x="312" y="354"/>
			<point x="290" y="354" type="curve" smooth="yes"/>
			<point x="160" y="354"/>
			<point x="169" y="255"/>
			<point x="141" y="142" type="curve" smooth="yes"/>
			<point x="116" y="41"/>
			<point x="143" y="0"/>
			<point x="219" y="0" type="curve" smooth="yes"/>
			<point x="310" y="0"/>
			<point x="345" y="53"/>
		</contour>
		<contour>
			<point x="31" y="292" type="curve" smooth="yes"/>
			<point x="24" y="282"/>
			<point x="20" y="256"/>
			<point x="45" y="240" type="curve" smooth="yes"/>
			<point x="69" y="224"/>
			<point x="89" y="231"/>
			<point x="98" y="245" type="curve" smooth="yes"/>
			<point x="109" y="261"/>
			<point x="128" y="272"/>
			<point x="144" y="270" type="curve" smooth="yes"/>
			<point x="158" y="268"/>
			<point x="166" y="250"/>
			<point x="148" y="189" type="curve" smooth="yes"/>
			<point x="121" y="95"/>
			<point x="107" y="88"/>
			<point x="83" y="83" type="curve" smooth="yes"/>
			<point x="63" y="79"/>
			<point x="41" y="83"/>
			<point x="25" y="86" type="curve" smooth="yes"/>
			<point x="1" y="90"/>
			<point x="-20" y="90"/>
			<point x="-33" y="68" type="curve" smooth="yes"/>
			<point x="-53" y="36"/>
			<point x="-29" y="14"/>
			<point x="-16" y="9" type="curve" smooth="yes"/>
			<point x="7" y="0"/>
			<point x="43" y="0"/>
			<point x="59" y="0" type="curve" smooth="yes"/>
			<point x="165" y="0"/>
			<point x="208" y="114"/>
			<point x="232" y="226" type="curve" smooth="yes"/>
			<point x="253" y="320"/>
			<point x="190" y="351"/>
			<point x="142" y="351" type="curve" smooth="yes"/>
			<point x="74" y="351"/>
			<point x="57" y="330"/>
		</contour>
	</outline>
</glyph>
<glyph name="y" format="2">
	<advance width="431"/>
	<unicode hex="0079"/>
	<outline>
		<contour>
			<point x="134" y="-4" type="curve" smooth="yes"/>
			<point x="188" y="-4"/>
			<point x="221" y="33"/>
			<point x="247" y="59" type="curve"/>
			<point x="268" y="231" type="line"/>
			<point x="230" y="173"/>
			<point x="169" y="82"/>
			<point x="142" y="82" type="curve" smooth="yes"/>
			<point x="118" y="82"/>
			<point x="113" y="112"/>
			<point x="118" y="142" type="curve" smooth="yes"/>
			<point x="146" y="301" type="line" smooth="yes"/>
			<point x="150" y="325"/>
			<point x="134" y="350"/>
			<point x="102" y="350" type="curve" smooth="yes"/>
			<point x="66" y="350"/>
			<point x="50" y="331"/>
			<point x="47" y="316" type="curve" smooth="yes"/>
			<point x="19" y="157" type="line" smooth="yes"/>
			<point x="2" y="58"/>
			<point x="44" y="-4"/>
		</contour>
		<contour>
			<point x="105" y="-300" type="curve" smooth="yes"/>
			<point x="163" y="-300"/>
			<point x="206" y="-287"/>
			<point x="245" y="-245" type="curve" smooth="yes"/>
			<point x="288" y="-198"/>
			<point x="308" y="-91"/>
			<point x="317" y="-41" type="curve" smooth="yes"/>
			<point x="377" y="301" type="line" smooth="yes"/>
			<point x="382" y="331"/>
			<point x="360" y="350"/>
			<point x="330" y="350" type="curve" smooth="yes"/>
			<point x="302" y="350"/>
			<point x="282" y="338"/>
			<point x="277" y="309" type="curve" smooth="yes"/>
			<point x="218" y="-26" type="line" smooth="yes"/>
			<point x="213" y="-57"/>
			<point x="195" y="-151"/>
			<point x="171" y="-177" type="curve" smooth="yes"/>
			<point x="153" y="-196"/>
			<point x="127" y="-201"/>
			<point x="106" y="-201" type="curve" smooth="yes"/>
			<point x="93" y="-201"/>
			<point x="75" y="-197"/>
			<point x="69" y="-193" type="curve" smooth="yes"/>
			<point x="56" y="-185"/>
			<point x="17" y="-174"/>
			<point x="-1" y="-200" type="curve" smooth="yes"/>
			<point x="-24" y="-234"/>
			<point x="-10" y="-260"/>
			<point x="6" y="-271" type="curve" smooth="yes"/>
			<point x="21" y="-282"/>
			<point x="57" y="-300"/>
		</contour>
	</outline>
</glyph>
<glyph name="z" format="2">
  <advance width="403"/>
  <unicode hex="007A"/>
  <outline>
    <contour>
      <point x="54" y="0" type="curve" smooth="yes"/>
      <point x="272" y="0" type="line" smooth="yes"/>
      <point x="302.0" y="0.0"/>
      <point x="320" y="19"/>
      <point x="320" y="43" type="curve" smooth="yes"/>
      <point x="320" y="67"/>
      <point x="302.0" y="85.0"/>
      <point x="272" y="85" type="curve" smooth="yes"/>
      <point x="134" y="85" type="line"/>
      <point x="137" y="64" type="line"/>
      <point x="344" y="268" type="line" smooth="yes"/>
      <point x="383" y="307"/>
      <point x="364.0" y="350.0"/>
      <point x="318" y="350" type="curve" smooth="yes"/>
      <point x="103" y="350" type="line" smooth="yes"/>
      <point x="73" y="350"/>
      <point x="55" y="329"/>
      <point x="55" y="305" type="curve" smooth="yes"/>
      <point x="55" y="281"/>
      <point x="73" y="260"/>
      <point x="103" y="260" type="curve" smooth="yes"/>
      <point x="235" y="260" type="line"/>
      <point x="232" y="281" type="line"/>
      <point x="23" y="75" type="line" smooth="yes"/>
      <point x="-4" y="48"/>
      <point x="8" y="0"/>
    </contour>
  </outline>
</glyph>
<glyph name="braceleft" format="2">
	<advance width="419"/>
	<unicode hex="007B"/>
	<outline>
		<contour>
			<point x="155" y="173" type="line"/>
			<point x="207" y="219"/>
			<point x="222" y="255"/>
			<point x="231" y="302" type="curve" smooth="yes"/>
			<point x="240" y="357"/>
			<point x="226" y="459"/>
			<point x="244" y="511" type="curve" smooth="yes"/>
			<point x="260" y="552"/>
			<point x="294" y="567"/>
			<point x="323" y="576" type="curve" smooth="yes"/>
			<point x="346" y="585"/>
			<point x="358" y="605"/>
			<point x="348" y="628" type="curve" smooth="yes"/>
			<point x="338" y="656"/>
			<point x="305" y="652"/>
			<point x="282" y="642" type="curve" smooth="yes"/>
			<point x="253" y="629"/>
			<point x="187" y="599"/>
			<point x="166" y="540" type="curve" smooth="yes"/>
			<point x="144" y="475"/>
			<point x="155" y="369"/>
			<point x="146" y="316" type="curve" smooth="yes"/>
			<point x="140" y="291"/>
			<point x="130" y="273"/>
			<point x="111" y="254" type="curve" smooth="yes"/>
			<point x="90" y="235"/>
			<point x="79" y="225"/>
			<point x="85" y="187" type="curve"/>
		</contour>
		<contour>
			<point x="197" y="-289" type="curve" smooth="yes"/>
			<point x="214" y="-268"/>
			<point x="202" y="-252"/>
			<point x="187" y="-235" type="curve" smooth="yes"/>
			<point x="163" y="-211"/>
			<point x="148" y="-187"/>
			<point x="146" y="-139" type="curve" smooth="yes"/>
			<point x="145" y="-83"/>
			<point x="191" y="12"/>
			<point x="196" y="66" type="curve" smooth="yes"/>
			<point x="202" y="114"/>
			<point x="196" y="155"/>
			<point x="165" y="216" type="curve"/>
			<point x="87" y="224" type="line"/>
			<point x="75" y="182"/>
			<point x="87" y="172"/>
			<point x="97" y="153" type="curve" smooth="yes"/>
			<point x="110" y="126"/>
			<point x="114" y="103"/>
			<point x="111" y="79" type="curve" smooth="yes"/>
			<point x="104" y="26"/>
			<point x="59" y="-75"/>
			<point x="62" y="-143" type="curve" smooth="yes"/>
			<point x="65" y="-203"/>
			<point x="102" y="-256"/>
			<point x="129" y="-285" type="curve" smooth="yes"/>
			<point x="152" y="-311"/>
			<point x="183" y="-308"/>
		</contour>
	</outline>
</glyph>
<glyph name="exclamdown" format="2">
	<advance width="346"/>
	<unicode hex="00A1"/>
	<outline>
		<contour>
			<point x="119" y="0" type="curve" smooth="yes"/>
			<point x="141" y="0"/>
			<point x="167" y="14"/>
			<point x="171" y="39" type="curve" smooth="yes"/>
			<point x="235" y="399" type="line" smooth="yes"/>
			<point x="241" y="433"/>
			<point x="215" y="450"/>
			<point x="192" y="452" type="curve" smooth="yes"/>
			<point x="168" y="454"/>
			<point x="140" y="437"/>
			<point x="135" y="407" type="curve" smooth="yes"/>
			<point x="71" y="47" type="line" smooth="yes"/>
			<point x="66" y="17"/>
			<point x="91" y="0"/>
		</contour>
		<contour>
			<point x="220" y="522" type="curve" smooth="yes"/>
			<point x="256" y="522"/>
			<point x="282" y="552"/>
			<point x="282" y="585" type="curve" smooth="yes"/>
			<point x="282" y="619"/>
			<point x="256" y="650"/>
			<point x="220" y="650" type="curve" smooth="yes"/>
			<point x="185" y="650"/>
			<point x="154" y="619"/>
			<point x="154" y="585" type="curve" smooth="yes"/>
			<point x="154" y="552"/>
			<point x="185" y="522"/>
		</contour>
	</outline>
</glyph>
<glyph name="brokenbar" format="2">
	<advance width="316"/>
	<unicode hex="00A6"/>
	<outline>
		<contour>
			<point x="170" y="111" type="line" smooth="yes"/>
			<point x="175" y="141"/>
			<point x="153" y="163"/>
			<point x="126" y="163" type="curve" smooth="yes"/>
			<point x="103" y="163"/>
			<point x="76" y="146"/>
			<point x="71" y="119" type="curve" smooth="yes"/>
			<point x="6" y="-248" type="line" smooth="yes"/>
			<point x="1" y="-276"/>
			<point x="22" y="-300"/>
			<point x="54" y="-300" type="curve" smooth="yes"/>
			<point x="88" y="-300"/>
			<point x="101" y="-279"/>
			<point x="105" y="-258" type="curve" smooth="yes"/>
		</contour>
		<contour>
			<point x="264" y="643" type="line" smooth="yes"/>
			<point x="270" y="679"/>
			<point x="247" y="700"/>
			<point x="219" y="700" type="curve" smooth="yes"/>
			<point x="197" y="700"/>
			<point x="171" y="683"/>
			<point x="166" y="655" type="curve" smooth="yes"/>
			<point x="101" y="290" type="line" smooth="yes"/>
			<point x="95" y="259"/>
			<point x="119" y="236"/>
			<point x="147" y="238" type="curve" smooth="yes"/>
			<point x="170" y="239"/>
			<point x="195" y="256"/>
			<point x="200" y="282" type="curve" smooth="yes"/>
		</contour>
	</outline>
</glyph>
<glyph name="degree" format="2">
	<advance width="422"/>
	<unicode hex="00B0"/>
	<outline>
		<contour>
			<point x="240" y="398"/>
			<point x="294" y="434"/>
			<point x="336" y="490"/>
			<point x="360" y="551"/>
			<point x="360" y="577" type="qcurve"/>
			<point x="360" y="613"/>
			<point x="314" y="654"/>
			<point x="272" y="654" type="qcurve"/>
			<point x="235" y="654"/>
			<point x="187" y="614"/>
			<point x="175" y="593" type="qcurve"/>
			<point x="166" y="578"/>
			<point x="146" y="516"/>
			<point x="146" y="478" type="qcurve"/>
			<point x="146" y="444"/>
			<point x="166" y="410"/>
			<point x="196" y="398"/>
			<point x="210" y="398" type="qcurve"/>
		</contour>
		<contour>
			<point x="224" y="476"/>
			<point x="221" y="495"/>
			<point x="222" y="504" type="qcurve"/>
			<point x="224" y="519"/>
			<point x="234" y="548"/>
			<point x="241" y="562" type="qcurve"/>
			<point x="247" y="573"/>
			<point x="262" y="580"/>
			<point x="269" y="580" type="qcurve"/>
			<point x="277" y="580"/>
			<point x="280" y="567"/>
			<point x="279" y="555" type="qcurve"/>
			<point x="278" y="543"/>
			<point x="267" y="516"/>
			<point x="251" y="491"/>
			<point x="234" y="476"/>
			<point x="227" y="476" type="qcurve"/>
		</contour>
	</outline>
</glyph>
<glyph name="plusminus" format="2">
	<advance width="511"/>
	<unicode hex="00B1"/>
	<outline>
		<contour>
			<point x="304" y="357" type="line" smooth="yes"/>
			<point x="310" y="390"/>
			<point x="285" y="411"/>
			<point x="259" y="411" type="curve" smooth="yes"/>
			<point x="238" y="411"/>
			<point x="217" y="398"/>
			<point x="212" y="371" type="curve" smooth="yes"/>
			<point x="185" y="222" type="line" smooth="yes"/>
			<point x="179" y="188"/>
			<point x="204" y="167"/>
			<point x="230" y="167" type="curve" smooth="yes"/>
			<point x="251" y="167"/>
			<point x="272" y="181"/>
			<point x="277" y="207" type="curve" smooth="yes"/>
		</contour>
		<contour>
			<point x="307" y="57" type="line" smooth="yes"/>
			<point x="337" y="57"/>
			<point x="358" y="74"/>
			<point x="358" y="99" type="curve" smooth="yes"/>
			<point x="358" y="122"/>
			<point x="337" y="142"/>
			<point x="307" y="142" type="curve" smooth="yes"/>
			<point x="117" y="142" type="line" smooth="yes"/>
			<point x="87" y="142"/>
			<point x="67" y="122"/>
			<point x="67" y="99" type="curve" smooth="yes"/>
			<point x="67" y="75"/>
			<point x="87" y="57"/>
			<point x="117" y="57" type="curve" smooth="yes"/>
		</contour>
		<contour>
			<point x="338" y="248" type="line" smooth="yes"/>
			<point x="368" y="248"/>
			<point x="388" y="266"/>
			<point x="388" y="290" type="curve" smooth="yes"/>
			<point x="388" y="313"/>
			<point x="368" y="333"/>
			<point x="338" y="333" type="curve" smooth="yes"/>
			<point x="148" y="333" type="line" smooth="yes"/>
			<point x="118" y="333"/>
			<point x="98" y="313"/>
			<point x="98" y="290" type="curve" smooth="yes"/>
			<point x="98" y="266"/>
			<point x="118" y="248"/>
			<point x="148" y="248" type="curve" smooth="yes"/>
		</contour>
	</outline>
</glyph>
<glyph name="periodcentered" format="2">
	<advance width="346"/>
	<unicode hex="00B7"/>
	<outline>
		<contour>
			<point x="143" y="121" type="curve" smooth="yes"/>
			<point x="177" y="121"/>
			<point x="208" y="154"/>
			<point x="208" y="187" type="curve" smooth="yes"/>
			<point x="208" y="223"/>
			<point x="177" y="249"/>
			<point x="143" y="249" type="curve" smooth="yes"/>
			<point x="107" y="249"/>
			<point x="80" y="221"/>
			<point x="80" y="187" type="curve" smooth="yes"/>
			<point x="80" y="156"/>
			<point x="107" y="121"/>
		</contour>
	</outline>
</glyph>
<glyph name="questiondown" format="2">
	<advance width="483"/>
	<unicode hex="00BF"/>
	<outline>
		<contour>
			<point x="188" y="1" type="curve" smooth="yes"/>
			<point x="303" y="1"/>
			<point x="375" y="67"/>
			<point x="392" y="159" type="curve" smooth="yes"/>
			<point x="397" y="194"/>
			<point x="384" y="212"/>
			<point x="363" y="217" type="curve" smooth="yes"/>
			<point x="339" y="224"/>
			<point x="304" y="208"/>
			<point x="298" y="175" type="curve" smooth="yes"/>
			<point x="291" y="128"/>
			<point x="266" y="89"/>
			<point x="206" y="89" type="curve" smooth="yes"/>
			<point x="156" y="89"/>
			<point x="128" y="108"/>
			<point x="135" y="148" type="curve" smooth="yes"/>
			<point x="142" y="192"/>
			<point x="166" y="300"/>
			<point x="287" y="289" type="curve"/>
			<point x="316" y="386" type="line"/>
			<point x="142" y="398"/>
			<point x="61" y="296"/>
			<point x="36" y="160" type="curve" smooth="yes"/>
			<point x="22" y="76"/>
			<point x="93" y="1"/>
		</contour>
		<contour>
			<point x="287" y="289" type="curve" smooth="yes"/>
			<point x="309" y="289"/>
			<point x="332" y="304"/>
			<point x="336" y="326" type="curve" smooth="yes"/>
			<point x="354" y="428" type="line" smooth="yes"/>
			<point x="359" y="454"/>
			<point x="340" y="473"/>
			<point x="316" y="479" type="curve" smooth="yes"/>
			<point x="290" y="484"/>
			<point x="260" y="470"/>
			<point x="254" y="435" type="curve" smooth="yes"/>
			<point x="236" y="333" type="line" smooth="yes"/>
			<point x="232" y="310"/>
			<point x="256" y="289"/>
		</contour>
		<contour>
			<point x="334" y="522" type="curve" smooth="yes"/>
			<point x="370" y="522"/>
			<point x="396" y="555"/>
			<point x="396" y="588" type="curve" smooth="yes"/>
			<point x="396" y="621"/>
			<point x="368" y="650"/>
			<point x="333" y="650" type="curve" smooth="yes"/>
			<point x="297" y="650"/>
			<point x="268" y="621"/>
			<point x="268" y="589" type="curve" smooth="yes"/>
			<point x="268" y="555"/>
			<point x="297" y="522"/>
		</contour>
	</outline>
</glyph>
<glyph name="endash" format="2">
	<advance width="548"/>
	<unicode hex="2013"/>
	<outline>
		<contour>
			<point x="134" y="153" type="curve" smooth="yes"/>
			<point x="361" y="153" type="line" smooth="yes"/>
			<point x="392" y="153"/>
			<point x="413" y="174"/>
			<point x="413" y="199" type="curve" smooth="yes"/>
			<point x="413" y="223"/>
			<point x="392" y="242"/>
			<point x="361" y="242" type="curve" smooth="yes"/>
			<point x="134" y="242" type="line" smooth="yes"/>
			<point x="103" y="242"/>
			<point x="82" y="223"/>
			<point x="82" y="199" type="curve" smooth="yes"/>
			<point x="82" y="174"/>
			<point x="103" y="153"/>
		</contour>
	</outline>
</glyph>
<glyph name="emdash" format="2">
	<advance width="651"/>
	<unicode hex="2014"/>
	<outline>
		<contour>
			<point x="137" y="153" type="curve" smooth="yes"/>
			<point x="460" y="153" type="line" smooth="yes"/>
			<point x="493" y="153"/>
			<point x="516" y="174"/>
			<point x="516" y="199" type="curve" smooth="yes"/>
			<point x="516" y="222"/>
			<point x="494" y="242"/>
			<point x="460" y="242" type="curve" smooth="yes"/>
			<point x="137" y="242" type="line" smooth="yes"/>
			<point x="104" y="242"/>
			<point x="82" y="222"/>
			<point x="82" y="199" type="curve" smooth="yes"/>
			<point x="82" y="174"/>
			<point x="105" y="153"/>
		</contour>
	</outline>
</glyph>
<glyph name="ellipsis" format="2">
	<advance width="616"/>
	<unicode hex="2026"/>
	<outline>
		<contour>
			<point x="395" y="-31" type="curve" smooth="yes"/>
			<point x="423" y="-31"/>
			<point x="450" y="-6"/>
			<point x="450" y="25" type="curve" smooth="yes"/>
			<point x="450" y="56"/>
			<point x="423" y="79"/>
			<point x="394" y="79" type="curve" smooth="yes"/>
			<point x="366" y="79"/>
			<point x="340" y="57"/>
			<point x="340" y="25" type="curve" smooth="yes"/>
			<point x="340" y="-6"/>
			<point x="366" y="-31"/>
		</contour>
		<contour>
			<point x="105" y="-31" type="curve" smooth="yes"/>
			<point x="133" y="-31"/>
			<point x="160" y="-6"/>
			<point x="160" y="25" type="curve" smooth="yes"/>
			<point x="160" y="56"/>
			<point x="133" y="79"/>
			<point x="104" y="79" type="curve" smooth="yes"/>
			<point x="76" y="79"/>
			<point x="50" y="57"/>
			<point x="50" y="25" type="curve" smooth="yes"/>
			<point x="50" y="-6"/>
			<point x="76" y="-31"/>
		</contour>
		<contour>
			<point x="250" y="-30" type="curve" smooth="yes"/>
			<point x="278" y="-30"/>
			<point x="305" y="-6"/>
			<point x="305" y="25" type="curve" smooth="yes"/>
			<point x="305" y="56"/>
			<point x="278" y="79"/>
			<point x="250" y="79" type="curve" smooth="yes"/>
			<point x="221" y="79"/>
			<point x="195" y="56"/>
			<point x="195" y="25" type="curve" smooth="yes"/>
			<point x="195" y="-6"/>
			<point x="221" y="-30"/>
		</contour>
	</outline>
</glyph>
<glyph name="infinity" format="2">
	<advance width="753"/>
	<unicode hex="221E"/>
	<outline>
		<contour>
			<point x="294" y="204" type="line"/>
			<point x="310" y="179" type="line" smooth="yes"/>
			<point x="343" y="127"/>
			<point x="395" y="71"/>
			<point x="456" y="61" type="curve" smooth="yes"/>
			<point x="525" y="49"/>
			<point x="625" y="92"/>
			<point x="645" y="205" type="curve" smooth="yes"/>
			<point x="664" y="314"/>
			<point x="587" y="362"/>
			<point x="527" y="373" type="curve" smooth="yes"/>
			<point x="472" y="383"/>
			<point x="390" y="369"/>
			<point x="305" y="284" type="curve"/>
		</contour>
		<contour>
			<point x="292" y="272" type="line"/>
			<point x="246" y="221"/>
			<point x="168" y="151"/>
			<point x="153" y="154" type="curve" smooth="yes"/>
			<point x="138" y="156"/>
			<point x="143" y="195"/>
			<point x="149" y="227" type="curve" smooth="yes"/>
			<point x="155" y="261"/>
			<point x="177" y="284"/>
			<point x="214" y="278" type="curve" smooth="yes"/>
			<point x="256" y="271"/>
			<point x="276" y="220"/>
			<point x="293" y="198" type="curve"/>
			<point x="356" y="272" type="line"/>
			<point x="340" y="296"/>
			<point x="308" y="361"/>
			<point x="236" y="374" type="curve" smooth="yes"/>
			<point x="139" y="391"/>
			<point x="80" y="301"/>
			<point x="66" y="225" type="curve" smooth="yes"/>
			<point x="55" y="164"/>
			<point x="70" y="72"/>
			<point x="136" y="60" type="curve" smooth="yes"/>
			<point x="202" y="49"/>
			<point x="278" y="126"/>
			<point x="348" y="197" type="curve"/>
		</contour>
		<contour>
			<point x="388" y="233" type="line"/>
			<point x="437" y="277"/>
			<point x="475" y="284"/>
			<point x="503" y="279" type="curve" smooth="yes"/>
			<point x="543" y="272"/>
			<point x="566" y="247"/>
			<point x="560" y="215" type="curve" smooth="yes"/>
			<point x="553" y="175"/>
			<point x="515" y="150"/>
			<point x="482" y="156" type="curve" smooth="yes"/>
			<point x="439" y="163"/>
			<point x="402" y="212"/>
			<point x="392" y="227" type="curve" smooth="yes"/>
		</contour>
	</outline>
</glyph>
<glyph name="approxequal" format="2">
	<advance width="537"/>
	<unicode hex="2248"/>
	<outline>
		<contour>
			<point x="298" y="229" type="curve" smooth="yes"/>
			<point x="335" y="229"/>
			<point x="360" y="241"/>
			<point x="378" y="249" type="curve" smooth="yes"/>
			<point x="406" y="262"/>
			<point x="418" y="273"/>
			<point x="418" y="293" type="curve" smooth="yes"/>
			<point x="418" y="321"/>
			<point x="386" y="351"/>
			<point x="354" y="335" type="curve" smooth="yes"/>
			<point x="330" y="323"/>
			<point x="325" y="316"/>
			<point x="306" y="316" type="curve" smooth="yes"/>
			<point x="289" y="316"/>
			<point x="247" y="352"/>
			<point x="208" y="352" type="curve" smooth="yes"/>
			<point x="177" y="352"/>
			<point x="155" y="342"/>
			<point x="139" y="335" type="curve" smooth="yes"/>
			<point x="112" y="324"/>
			<point x="98" y="313"/>
			<point x="98" y="293" type="curve" smooth="yes"/>
			<point x="98" y="261"/>
			<point x="130" y="234"/>
			<point x="161" y="249" type="curve" smooth="yes"/>
			<point x="179" y="258"/>
			<point x="187" y="265"/>
			<point x="200" y="265" type="curve" smooth="yes"/>
			<point x="220" y="265"/>
			<point x="261" y="229"/>
		</contour>
		<contour>
			<point x="264" y="35" type="curve" smooth="yes"/>
			<point x="301" y="35"/>
			<point x="326" y="47"/>
			<point x="344" y="55" type="curve" smooth="yes"/>
			<point x="372" y="68"/>
			<point x="384" y="79"/>
			<point x="384" y="99" type="curve" smooth="yes"/>
			<point x="384" y="127"/>
			<point x="352" y="157"/>
			<point x="320" y="141" type="curve" smooth="yes"/>
			<point x="296" y="129"/>
			<point x="291" y="122"/>
			<point x="272" y="122" type="curve" smooth="yes"/>
			<point x="255" y="122"/>
			<point x="213" y="158"/>
			<point x="174" y="158" type="curve" smooth="yes"/>
			<point x="143" y="158"/>
			<point x="121" y="148"/>
			<point x="105" y="141" type="curve" smooth="yes"/>
			<point x="78" y="130"/>
			<point x="64" y="119"/>
			<point x="64" y="99" type="curve" smooth="yes"/>
			<point x="64" y="67"/>
			<point x="96" y="40"/>
			<point x="127" y="55" type="curve" smooth="yes"/>
			<point x="145" y="64"/>
			<point x="153" y="71"/>
			<point x="166" y="71" type="curve" smooth="yes"/>
			<point x="186" y="71"/>
			<point x="227" y="35"/>
		</contour>
	</outline>
</glyph>
<glyph name="lessequal" format="2">
	<advance width="517"/>
	<unicode hex="2264"/>
	<outline>
		<contour>
			<point x="382" y="322" type="line" smooth="yes"/>
			<point x="410" y="337"/>
			<point x="418" y="362"/>
			<point x="401" y="386" type="curve" smooth="yes"/>
			<point x="389" y="403"/>
			<point x="363" y="408"/>
			<point x="334" y="393" type="curve" smooth="yes"/>
			<point x="117" y="281" type="line" smooth="yes"/>
			<point x="89" y="266"/>
			<point x="85" y="242"/>
			<point x="101" y="221" type="curve" smooth="yes"/>
			<point x="114" y="201"/>
			<point x="139" y="197"/>
			<point x="164" y="210" type="curve" smooth="yes"/>
		</contour>
		<contour>
			<point x="311" y="57" type="line" smooth="yes"/>
			<point x="341" y="57"/>
			<point x="362" y="75"/>
			<point x="362" y="98" type="curve" smooth="yes"/>
			<point x="362" y="122"/>
			<point x="341" y="142"/>
			<point x="311" y="142" type="curve" smooth="yes"/>
			<point x="115" y="142" type="line" smooth="yes"/>
			<point x="85" y="142"/>
			<point x="64" y="122"/>
			<point x="64" y="98" type="curve" smooth="yes"/>
			<point x="64" y="74"/>
			<point x="85" y="57"/>
			<point x="115" y="57" type="curve" smooth="yes"/>
		</contour>
		<contour>
			<point x="138" y="202" type="line"/>
			<point x="339" y="202" type="line" smooth="yes"/>
			<point x="367" y="202"/>
			<point x="389" y="222"/>
			<point x="389" y="245" type="curve" smooth="yes"/>
			<point x="391" y="272"/>
			<point x="365" y="287"/>
			<point x="333" y="287" type="curve" smooth="yes"/>
			<point x="140" y="287" type="line"/>
		</contour>
	</outline>
</glyph>
<glyph name="a.ss01" format="2">
	<advance width="470"/>
	<outline>
		<contour>
			<point x="316" y="0" type="curve" smooth="yes"/>
			<point x="237" y="0"/>
			<point x="226" y="83"/>
			<point x="240" y="162" type="curve" smooth="yes"/>
			<point x="273" y="350" type="line"/>
			<point x="321" y="350" type="line" smooth="yes"/>
			<point x="353" y="350"/>
			<point x="365" y="328"/>
			<point x="359" y="295" type="curve" smooth="yes"/>
			<point x="336" y="160" type="line" smooth="yes"/>
			<point x="327" y="108"/>
			<point x="327" y="93"/>
			<point x="337" y="93" type="curve" smooth="yes"/>
			<point x="346" y="93"/>
			<point x="371" y="129"/>
			<point x="377" y="140" type="curve" smooth="yes"/>
			<point x="389" y="161" type="line" smooth="yes"/>
			<point x="399" y="179"/>
			<point x="418" y="177"/>
			<point x="429" y="172" type="curve" smooth="yes"/>
			<point x="444" y="167"/>
			<point x="458" y="152"/>
			<point x="458" y="136" type="curve" smooth="yes"/>
			<point x="458" y="122"/>
			<point x="444" y="88"/>
			<point x="427" y="62" type="curve" smooth="yes"/>
			<point x="404" y="25"/>
			<point x="362" y="0"/>
		</contour>
		<contour>
			<point x="123" y="-4" type="curve" smooth="yes"/>
			<point x="56" y="-4"/>
			<point x="-10" y="47"/>
			<point x="8" y="147" type="curve" smooth="yes"/>
			<point x="28" y="261"/>
			<point x="98" y="350"/>
			<point x="264" y="350" type="curve" smooth="yes"/>
			<point x="288" y="350" type="line"/>
			<point x="279" y="260" type="line"/>
			<point x="267" y="260" type="line" smooth="yes"/>
			<point x="133" y="260"/>
			<point x="117" y="193"/>
			<point x="109" y="147" type="curve" smooth="yes"/>
			<point x="101" y="101"/>
			<point x="116" y="86"/>
			<point x="144" y="86" type="curve" smooth="yes"/>
			<point x="173" y="86"/>
			<point x="226" y="189"/>
			<point x="285" y="320" type="curve"/>
			<point x="263" y="112" type="line"/>
			<point x="227" y="48"/>
			<point x="183" y="-4"/>
		</contour>
	</outline>
</glyph>
